<svg xmlns="http://www.w3.org/2000/svg" xmlns:xlink="http://www.w3.org/1999/xlink" viewBox="0 0 42.37 63.71"><defs><linearGradient id="linear-gradient" x1="14.23" y1="-111.01" x2="23.72" y2="-111.01" gradientTransform="translate(22.47 131.53) rotate(-12.27)" gradientUnits="userSpaceOnUse"><stop offset="0" stop-color="#fff"/><stop offset="1" stop-color="#fff" stop-opacity="0.3"/></linearGradient><linearGradient id="linear-gradient-2" x1="12.71" y1="-114.29" x2="24.91" y2="-114.29" xlink:href="#linear-gradient"/><linearGradient id="linear-gradient-3" x1="-19.79" y1="-99.34" x2="-13.25" y2="-99.34" gradientTransform="translate(46.19 110.18) rotate(-8.08)" xlink:href="#linear-gradient"/><linearGradient id="linear-gradient-4" x1="17.4" y1="-107.29" x2="21.88" y2="-114.68" gradientTransform="translate(22.47 131.53) rotate(-12.27)" gradientUnits="userSpaceOnUse"><stop offset="0" stop-color="#fff"/><stop offset="1" stop-color="#fff" stop-opacity="0.2"/></linearGradient><linearGradient id="linear-gradient-5" x1="24.01" y1="-102.69" x2="26.47" y2="-114.71" gradientTransform="translate(22.47 131.53) rotate(-12.27)" gradientUnits="userSpaceOnUse"><stop offset="0" stop-color="#fff"/><stop offset="1" stop-color="#fff" stop-opacity="0.3"/></linearGradient><linearGradient id="linear-gradient-6" x1="62.65" y1="196.98" x2="68.46" y2="196.98" gradientTransform="matrix(1.55, -0.34, 0.46, 2.12, -177.45, -379.7)" xlink:href="#linear-gradient"/><linearGradient id="linear-gradient-7" x1="-105.94" y1="-171.63" x2="-94.04" y2="-174.95" gradientTransform="matrix(1, -0.61, 0.59, 0.97, 222.91, 132.87)" gradientUnits="userSpaceOnUse"><stop offset="0" stop-color="#fff"/><stop offset="1" stop-color="#fff" stop-opacity="0"/></linearGradient><linearGradient id="linear-gradient-8" x1="17.72" y1="-107.1" x2="22.2" y2="-114.51" xlink:href="#linear-gradient-4"/></defs><title>location-maps</title><g id="Layer_1" data-name="Layer 1"><circle cx="21.18" cy="21.72" r="18.42" style="stroke:#fff;stroke-miterlimit:10"/><rect x="20.81" y="47.3" width="0.75" height="11.5" style="fill:#fff"/><circle cx="21.18" cy="44.15" r="1.42" style="fill:#fff"/><path d="M19.41,13.1a5.81,5.81,0,0,1,2.19,2.83,6.28,6.28,0,0,1-.22,4.24c-.37.6-2.55,1.38-3.3,2.22s-1.39,1.12-1.36,1.94-2.87.55-3,.05S19.41,13.1,19.41,13.1Z" style="fill:url(#linear-gradient)"/><path d="M11.69,21.23a.49.49,0,0,0,0,.55c.43.7,1.5,2.37,1.83,2.3s4.44-8.16,6.23-11.59c.4-.76.68-1.29.79-1.45.59-.93.21-2.35.47-3.49s-2.28,3.09-2.28,3.09,0,0-1.54,1.2a5.81,5.81,0,0,0-2.28,2.71v0l-.62,2.07c0,.1-.07.19-.11.29l-1.76,3.51-.07.11Z" style="fill:url(#linear-gradient-2)"/><path d="M18.68,10.66s-.13,3.57-2.59,4.77-3,2.2-3,2.2a26.44,26.44,0,0,1,2.14-4.35C15.83,12.63,18.68,10.66,18.68,10.66Z" style="fill:url(#linear-gradient-3)"/><path d="M19.44,13.13s2.32,3.41,1.33,5.1-1.58,1-3.27,2.48-1.87,2-1.87,2l-.44,1.1-1.42.45Z" style="fill:url(#linear-gradient-4)"/><path d="M27.68,14.54c2.3,3.47,2.24,9.6,2.24,9.6l-.7.6L18.37,34.09s1.95-6.72,2.66-8.75,2-4.4,2.29-6.57a7.05,7.05,0,0,0-2.5-6.33,11.22,11.22,0,0,0-2.14-1.73S24.92,10.39,27.68,14.54Z" style="fill:url(#linear-gradient-5)"/><path d="M18.67,10.67s.47,5-2.78,7.16a17,17,0,0,0-4.3,3.63,30.7,30.7,0,0,0,3.37-7C15.37,13,18.67,10.67,18.67,10.67Z" style="fill:url(#linear-gradient-6)"/><path d="M17.61,34.72s-1.48-.3-.56-5c1.06-5.44,7.14-12,7.14-12a37.84,37.84,0,0,0-.91,3.79c-.32,1.76.51,6.84-1.61,9.34A24.47,24.47,0,0,1,17.61,34.72Z" style="fill:url(#linear-gradient-7)"/><path d="M19.41,13.1s3,1.9,2.18,5c-.54,2.05-1.8,1.41-3.49,3.13a22,22,0,0,0-1.93,2.07l-.33.48a.68.68,0,0,1-.52.29l-1.55.11Z" style="fill:url(#linear-gradient-8)"/></g></svg>