<svg id="Layer_1" data-name="Layer 1" xmlns="http://www.w3.org/2000/svg" xmlns:xlink="http://www.w3.org/1999/xlink" viewBox="0 0 1112.63 212.19"><defs><linearGradient id="linear-gradient" x1="-80.37" y1="-115.92" x2="-28.11" y2="-115.92" gradientTransform="matrix(0.96, -0.28, 0.28, 0.96, 182.22, 182.5)" gradientUnits="userSpaceOnUse"><stop offset="0" stop-color="#fff"/><stop offset="1" stop-color="#fff" stop-opacity="0.3"/></linearGradient><linearGradient id="linear-gradient-2" x1="-88.73" y1="-133.97" x2="-21.58" y2="-133.97" xlink:href="#linear-gradient"/><linearGradient id="linear-gradient-3" x1="-72.68" y1="-121.14" x2="-36.68" y2="-121.14" gradientTransform="translate(166 167.31) rotate(-12.35)" xlink:href="#linear-gradient"/><linearGradient id="linear-gradient-4" x1="-62.9" y1="-95.43" x2="-38.26" y2="-136.13" gradientTransform="matrix(0.96, -0.28, 0.28, 0.96, 182.22, 182.5)" gradientUnits="userSpaceOnUse"><stop offset="0" stop-color="#fff"/><stop offset="1" stop-color="#fff" stop-opacity="0.2"/></linearGradient><linearGradient id="linear-gradient-5" x1="-26.56" y1="-70.13" x2="-13" y2="-136.26" gradientTransform="matrix(0.96, -0.28, 0.28, 0.96, 182.22, 182.5)" gradientUnits="userSpaceOnUse"><stop offset="0" stop-color="#fff"/><stop offset="1" stop-color="#fff" stop-opacity="0.3"/></linearGradient><linearGradient id="linear-gradient-6" x1="-32.85" y1="-82.81" x2="-37.76" y2="-151.1" gradientTransform="matrix(0.96, -0.28, 0.28, 0.96, 182.22, 182.5)" gradientUnits="userSpaceOnUse"><stop offset="0" stop-color="#fff"/><stop offset="1" stop-color="#fff" stop-opacity="0.1"/></linearGradient><linearGradient id="linear-gradient-7" x1="8.67" y1="-100.78" x2="40.6" y2="-100.78" gradientTransform="matrix(1.52, -0.45, 0.62, 2.08, 108.17, 292.38)" xlink:href="#linear-gradient"/><linearGradient id="linear-gradient-8" x1="-338.21" y1="-253.42" x2="-272.68" y2="-271.71" gradientTransform="matrix(0.95, -0.68, 0.66, 0.92, 583.35, 158.44)" gradientUnits="userSpaceOnUse"><stop offset="0" stop-color="#fff"/><stop offset="1" stop-color="#fff" stop-opacity="0"/></linearGradient><linearGradient id="linear-gradient-9" x1="-61.18" y1="-94.41" x2="-36.49" y2="-135.18" xlink:href="#linear-gradient-4"/></defs><title>logo-pony-full2</title><path d="M113.81,6.89a94,94,0,0,1,90.7,69.81,24.66,24.66,0,0,1,4.74-.48,98.53,98.53,0,0,0-190.88,0,24.88,24.88,0,0,1,4.69.64A94,94,0,0,1,113.81,6.89Z" style="fill:#fff;opacity:0.3"/><path d="M204.51,124.72a93.82,93.82,0,0,1-181.45-.2,24.88,24.88,0,0,1-4.69.64,98.53,98.53,0,0,0,190.88,0A24.66,24.66,0,0,1,204.51,124.72Z" style="fill:#fff;opacity:0.3"/><circle cx="17.36" cy="100.71" r="8.96" style="fill:#fafafa"/><circle cx="209.39" cy="100.71" r="8.96" style="fill:#fafafa"/><path d="M105.7,53.5s9.53,5.16,13.14,14.6,2.31,19.92.54,23.39-13.45,8.62-17.19,13.52-7.2,6.76-6.67,11.23-15.56,4.2-16.36,1.49S105.7,53.5,105.7,53.5Z" style="fill:url(#linear-gradient)"/><path d="M66.64,101.29a2.57,2.57,0,0,0,0,3c2.63,3.64,9.18,12.36,10.94,11.84S98.57,69.57,107,50c1.87-4.32,3.21-7.34,3.73-8.3,2.87-5.29.19-13,1.13-19.31s-11.25,17.87-11.25,17.87,0,.17-8,7.21c-9.78,8.68-11.31,15.09-11.42,15.84l0,.17L78.7,75.08a9.61,9.61,0,0,1-.51,1.63L70,96.75a2.23,2.23,0,0,1-.33.58Z" style="fill:url(#linear-gradient-2)"/><path d="M100.66,40.41s.74,19.65-12.26,27.26S72.68,80.94,72.68,80.94,79.38,60,82.61,56.19,100.66,40.41,100.66,40.41Z" style="fill:url(#linear-gradient-3)"/><path d="M105.88,53.65S120,71.39,115.23,81.09s-8.24,6.17-16.92,15-9.48,11.51-9.48,11.51l-2,6.25-7.58,3Z" style="fill:url(#linear-gradient-4)"/><path d="M151.68,58c14,18.08,16.23,51.76,16.23,51.76l-3.59,3.59-55.76,55.78s8-37.7,11.06-49.11,9.22-25,9.84-37c.71-13.73-4.84-24.38-16.32-33.73-8.49-6.93-12.45-8.62-12.45-8.62S134.83,36.37,151.68,58Z" style="fill:url(#linear-gradient-5)"/><path d="M100.82,40.42s37.2-6,50,22.12,11,53.26,11,53.26l-55.29,55.37s3.47-34.55,6.55-46,8.46-27.15,10-39.11-3.19-25.7-17.3-32.41h0Z" style="fill:url(#linear-gradient-6)"/><path d="M100.62,40.44s4.64,27.29-12.34,40.45-22.1,21.7-22.1,21.7,12-21.67,15.63-40C83.44,54.4,100.62,40.44,100.62,40.44Z" style="fill:url(#linear-gradient-7)"/><path d="M104.67,172.88s-8.24-1-5.14-27.23C103.12,115.32,133.82,77,133.82,77a208.29,208.29,0,0,0-3.45,21.21c-1,9.78,5.59,37.33-5,51.91A134.33,134.33,0,0,1,104.67,172.88Z" style="fill:url(#linear-gradient-8)"/><path d="M105.68,53.48s17.3,9.23,14,26.76c-2.15,11.48-9.28,8.5-17.89,18.63S92.11,111,92.11,111l-1.61,2.75a3.8,3.8,0,0,1-2.73,1.83l-8.47,1.24Z" style="fill:url(#linear-gradient-9)"/><path d="M318.29,97.76C305.4,95,305.4,95,305.4,86.42c0-5.79.57-8.57,13.34-8.57a86.21,86.21,0,0,1,15.4,1.65l1,.2,1-6.09-.89-.22a75.6,75.6,0,0,0-16.69-2c-15.15,0-20.79,4-20.79,14.82,0,12.07,2.52,14.54,17.92,17.62,13.44,2.69,13.44,3.18,13.44,11.34,0,6-1.92,8.9-12.86,8.9a67.26,67.26,0,0,1-16.86-2.21l-1-.26-1.54,5.87.89.3a60.92,60.92,0,0,0,18.29,2.71c14.89,0,20.69-4.36,20.69-15.56S335.39,101.51,318.29,97.76Z" style="fill:#fafafa"/><path d="M402.37,72.27H379.76V129.7h7.64V108.56h15c12.27,0,18.49-4.65,18.49-13.82V86.09C420.86,76.92,414.64,72.27,402.37,72.27Zm.09,29.88H387.4V78.68h15.06c8.93,0,10.76,3,10.76,7.41v8.65C413.22,99.19,411.39,102.15,402.46,102.15Z" style="fill:#fafafa"/><path d="M593.47,123.05a101.5,101.5,0,0,1-14,1.07c-11.19,0-15-2.71-15-10.73V88.59c0-8,3.78-10.74,15-10.74a101.74,101.74,0,0,1,14,1.07l1,.15,1-6.2-1-.17A98.58,98.58,0,0,0,579,71.44c-15.1,0-22.13,5.42-22.13,17.06v25c0,11.64,7,17.06,22.13,17.06a97.39,97.39,0,0,0,15.47-1.26l1-.17-1-6.2Z" style="fill:#fafafa"/><polygon points="643.34 103.65 659.27 103.65 659.27 97.24 639.35 97.23 639.35 103.65 643.34 103.65" style="fill:#fafafa"/><rect x="638.96" y="71.4" width="37.85" height="6.41" style="fill:#fafafa"/><rect x="638.96" y="123.28" width="37.95" height="6.41" style="fill:#fafafa"/><path d="M758.71,120.19V134h-3V100.08h12.6q5.63,0,8.81,2.66a10.18,10.18,0,0,1,0,14.8q-3.18,2.65-8.81,2.65Zm0-17.33v14.52h9.58a10.53,10.53,0,0,0,6.65-1.85,7.41,7.41,0,0,0,0-10.81,10.47,10.47,0,0,0-6.65-1.86Z" style="fill:#fff"/><path d="M816,101a19.07,19.07,0,0,1,13.79,0,16.7,16.7,0,0,1,5.51,3.57,16.26,16.26,0,0,1,3.64,5.5,19,19,0,0,1,0,14,16.4,16.4,0,0,1-3.64,5.51,16.67,16.67,0,0,1-5.51,3.56,18.94,18.94,0,0,1-13.79,0,16.82,16.82,0,0,1-5.52-3.56,16.53,16.53,0,0,1-3.63-5.51,18.9,18.9,0,0,1,0-14,16.38,16.38,0,0,1,3.63-5.5A16.84,16.84,0,0,1,816,101Zm12.5,2.62a15.54,15.54,0,0,0-11.23,0,13.85,13.85,0,0,0-4.56,2.93,13.63,13.63,0,0,0-3,4.61,16.37,16.37,0,0,0,0,11.8,13.53,13.53,0,0,0,3,4.61,13.69,13.69,0,0,0,4.56,2.93,15.54,15.54,0,0,0,11.23,0,13.65,13.65,0,0,0,4.55-2.93,13.36,13.36,0,0,0,3-4.61,16.24,16.24,0,0,0,0-11.8,13.46,13.46,0,0,0-3-4.61A13.81,13.81,0,0,0,828.5,103.6Z" style="fill:#fff"/><path d="M895.62,134H893l-22.23-28.84,0,28.84h-3V100.08h2.67l22.25,28.84V100.08h3Z" style="fill:#fff"/><path d="M936.9,119.47V134h-3V119.42l-13.55-19.34h3.54l11.51,16.6L947,100.08h3.46Z" style="fill:#fff"/><polygon points="491.62 72.27 481.95 72.27 458.97 129.7 466.67 129.7 472.44 115.5 476.1 106.32 486.74 78.87 497.44 106.47 501.17 115.81 506.91 129.7 514.6 129.7 491.62 72.27" style="fill:#fafafa"/></svg>