<svg id="Layer_1" data-name="Layer 1" xmlns="http://www.w3.org/2000/svg" viewBox="0 0 473 158.35"><title>logo</title><path d="M197,121.51v6.7h-2.75V111.14h6.62a6.61,6.61,0,0,1,4.48,1.37,5.41,5.41,0,0,1,0,7.62,6.56,6.56,0,0,1-4.48,1.38Zm0-7.78v5.18h3.8a4,4,0,0,0,2.47-.63,2.85,2.85,0,0,0,0-3.92,4,4,0,0,0-2.47-.63Z" style="fill:#fff"/><path d="M221.41,115.07a5.47,5.47,0,0,1,2.73-.68,5.54,5.54,0,0,1,2.74.68,4.81,4.81,0,0,1,1.88,1.89,5.84,5.84,0,0,1,0,5.43,4.81,4.81,0,0,1-1.88,1.89,5.54,5.54,0,0,1-2.74.68,5.47,5.47,0,0,1-2.73-.68,4.69,4.69,0,0,1-1.88-1.89,5.84,5.84,0,0,1,0-5.43A4.69,4.69,0,0,1,221.41,115.07Z" style="fill:#24ccf8"/><path d="M256.71,128.21h-2.49l-9.53-12.35v12.35h-2.76V111.14h2.49L254,123.49V111.14h2.76Z" style="fill:#fff"/><path d="M275,121.29v6.92h-2.76v-7l-6.64-10.1h3.3l4.73,7.65,4.75-7.65h3.2Z" style="fill:#fff"/><line x1="426.34" y1="119.41" x2="305.09" y2="119.41" style="fill:none;stroke:#fff;stroke-miterlimit:10;stroke-width:2px"/><path d="M50.32,81.92l0-5.68H66.07c3.89,0,7-.63,9.53-2.17s3.58-3.26,3.58-6a5.82,5.82,0,0,0-2.94-5.18,18.83,18.83,0,0,0-8.46-2.75l-4.84-.55q-6.52-.75-10.36-3.88t-3.83-8.83a12.46,12.46,0,0,1,2.47-7.72,15.06,15.06,0,0,1,6.56-4.91A24.57,24.57,0,0,1,67,32.59h8.65v5.67H66.91c-3.68,0-6.67.33-9,1.89a7.32,7.32,0,0,0-3.45,6.34,6,6,0,0,0,2.71,5.26q2.71,1.89,8.38,2.54l4.57.55a31.63,31.63,0,0,1,5.72,1.26,19.33,19.33,0,0,1,4.73,2.28A10.09,10.09,0,0,1,84,62.15a11.49,11.49,0,0,1,1.2,5.35,12.49,12.49,0,0,1-2.63,7.92,15.39,15.39,0,0,1-6.87,4.94,26.81,26.81,0,0,1-9.53,1.56" style="fill:#fff"/><polygon points="239.88 32.54 234.18 32.54 213.99 81.9 219.86 81.9 225.4 68.15 225.41 68.15 227.58 62.79 237.58 38.15 239.88 32.54" style="fill:#fff"/><polygon points="253.54 60.18 237.52 60.16 237.52 66.04 249.73 66.04 256.69 81.84 262.73 81.84 253.54 60.18" style="fill:#fff"/><circle cx="86.71" cy="35.42" r="5.29" style="fill:#f02045"/><polygon points="141.2 56.78 141.19 56.78 141.19 37.96 141.2 37.96 141.2 32.6 141.19 32.6 135.52 32.6 135.52 81.94 141.19 81.94 141.19 62.1 141.2 62.1 141.2 56.78" style="fill:#fff"/><path d="M168.79,36.26c-3.06-2.44-7.34-3.66-12.87-3.66h-8.84v5.75h8.67c7.82,0,11.73,2.19,11.73,8.06s-3.91,8.07-11.73,8.07h-8.67v5.7h8.84c5.53,0,9.81-1.21,12.87-3.64a12.24,12.24,0,0,0,4.58-10.13A12.28,12.28,0,0,0,168.79,36.26Z" style="fill:#fff"/><polyline points="425.34 38.34 425.34 32.6 391.02 32.6 391.02 38.34" style="fill:#fff"/><polygon points="394.21 60.24 394.21 60.24 410.39 60.24 410.39 54.37 391.02 54.37 391.02 60.24 394.21 60.24" style="fill:#fff"/><polygon points="396.68 81.84 396.68 81.83 425.34 81.83 425.34 76.15 391.02 76.15 391.02 81.84 396.68 81.84" style="fill:#fff"/><path d="M342.13,68.74a16.57,16.57,0,0,1-6.21,5.55,18.12,18.12,0,0,1-8.46,2,19.33,19.33,0,0,1-7.36-1.4A17.19,17.19,0,0,1,310.27,65,19.78,19.78,0,0,1,309,60.24h-6a24.64,24.64,0,0,0,1.71,6.87,23.26,23.26,0,0,0,5.12,7.79A23.61,23.61,0,0,0,317.65,80a26.14,26.14,0,0,0,9.81,1.84,24.51,24.51,0,0,0,11.2-2.58,21,21,0,0,0,8.11-7.07l.08-.11-4.63-3.43Z" style="fill:#fff"/><path d="M310.27,49.54a17.6,17.6,0,0,1,3.92-6,17.89,17.89,0,0,1,5.91-3.85,19.51,19.51,0,0,1,7.36-1.39,18.06,18.06,0,0,1,8.44,2,16.92,16.92,0,0,1,6.23,5.54l.08.12,4.78-3.2-.08-.12a19.88,19.88,0,0,0-8-7.23,24.84,24.84,0,0,0-11.42-2.66,26.14,26.14,0,0,0-9.81,1.84,22.63,22.63,0,0,0-12.94,12.84A24.7,24.7,0,0,0,303,54.37H309A20.14,20.14,0,0,1,310.27,49.54Z" style="fill:#fff"/><line x1="167.91" y1="119.41" x2="46.66" y2="119.41" style="fill:none;stroke:#fff;stroke-miterlimit:10;stroke-width:2px"/></svg>