<svg id="Layer_1" data-name="Layer 1" xmlns="http://www.w3.org/2000/svg" xmlns:xlink="http://www.w3.org/1999/xlink" viewBox="0 0 1112.63 212.19"><defs><linearGradient id="linear-gradient" x1="-80.37" y1="-115.92" x2="-28.11" y2="-115.92" gradientTransform="matrix(0.96, -0.28, 0.28, 0.96, 182.22, 182.5)" gradientUnits="userSpaceOnUse"><stop offset="0" stop-color="#fff"/><stop offset="1" stop-color="#fff" stop-opacity="0.3"/></linearGradient><linearGradient id="linear-gradient-2" x1="-88.73" y1="-133.97" x2="-21.58" y2="-133.97" xlink:href="#linear-gradient"/><linearGradient id="linear-gradient-3" x1="-72.68" y1="-121.14" x2="-36.68" y2="-121.14" gradientTransform="translate(166 167.31) rotate(-12.35)" xlink:href="#linear-gradient"/><linearGradient id="linear-gradient-4" x1="-62.9" y1="-95.43" x2="-38.26" y2="-136.13" gradientTransform="matrix(0.96, -0.28, 0.28, 0.96, 182.22, 182.5)" gradientUnits="userSpaceOnUse"><stop offset="0" stop-color="#fff"/><stop offset="1" stop-color="#fff" stop-opacity="0.2"/></linearGradient><linearGradient id="linear-gradient-5" x1="-26.56" y1="-70.13" x2="-13" y2="-136.26" gradientTransform="matrix(0.96, -0.28, 0.28, 0.96, 182.22, 182.5)" gradientUnits="userSpaceOnUse"><stop offset="0" stop-color="#fff"/><stop offset="1" stop-color="#fff" stop-opacity="0.3"/></linearGradient><linearGradient id="linear-gradient-6" x1="-32.85" y1="-82.81" x2="-37.76" y2="-151.1" gradientTransform="matrix(0.96, -0.28, 0.28, 0.96, 182.22, 182.5)" gradientUnits="userSpaceOnUse"><stop offset="0" stop-color="#fff"/><stop offset="1" stop-color="#fff" stop-opacity="0.1"/></linearGradient><linearGradient id="linear-gradient-7" x1="8.67" y1="-100.78" x2="40.6" y2="-100.78" gradientTransform="matrix(1.52, -0.45, 0.62, 2.08, 108.17, 292.38)" xlink:href="#linear-gradient"/><linearGradient id="linear-gradient-8" x1="-338.21" y1="-253.42" x2="-272.68" y2="-271.71" gradientTransform="matrix(0.95, -0.68, 0.66, 0.92, 583.35, 158.44)" gradientUnits="userSpaceOnUse"><stop offset="0" stop-color="#fff"/><stop offset="1" stop-color="#fff" stop-opacity="0"/></linearGradient><linearGradient id="linear-gradient-9" x1="-61.18" y1="-94.41" x2="-36.49" y2="-135.18" xlink:href="#linear-gradient-4"/></defs><title>logo-pony-full2</title><path d="M113.81,6.89a94,94,0,0,1,90.7,69.81,24.66,24.66,0,0,1,4.74-.48,98.53,98.53,0,0,0-190.88,0,24.88,24.88,0,0,1,4.69.64A94,94,0,0,1,113.81,6.89Z" style="fill:#fff;opacity:0.3"/><path d="M204.51,124.72a93.82,93.82,0,0,1-181.45-.2,24.88,24.88,0,0,1-4.69.64,98.53,98.53,0,0,0,190.88,0A24.66,24.66,0,0,1,204.51,124.72Z" style="fill:#fff;opacity:0.3"/><circle cx="17.36" cy="100.71" r="8.96" style="fill:#fafafa"/><circle cx="209.39" cy="100.71" r="8.96" style="fill:#fafafa"/><path d="M105.7,53.5s9.53,5.16,13.14,14.6,2.31,19.92.54,23.39-13.45,8.62-17.19,13.52-7.2,6.76-6.67,11.23-15.56,4.2-16.36,1.49S105.7,53.5,105.7,53.5Z" style="fill:url(#linear-gradient)"/><path d="M66.64,101.29a2.57,2.57,0,0,0,0,3c2.63,3.64,9.18,12.36,10.94,11.84S98.57,69.57,107,50c1.87-4.32,3.21-7.34,3.73-8.3,2.87-5.29.19-13,1.13-19.31s-11.25,17.87-11.25,17.87,0,.17-8,7.21c-9.78,8.68-11.31,15.09-11.42,15.84l0,.17L78.7,75.08a9.61,9.61,0,0,1-.51,1.63L70,96.75a2.23,2.23,0,0,1-.33.58Z" style="fill:url(#linear-gradient-2)"/><path d="M100.66,40.41s.74,19.65-12.26,27.26S72.68,80.94,72.68,80.94,79.38,60,82.61,56.19,100.66,40.41,100.66,40.41Z" style="fill:url(#linear-gradient-3)"/><path d="M105.88,53.65S120,71.39,115.23,81.09s-8.24,6.17-16.92,15-9.48,11.51-9.48,11.51l-2,6.25-7.58,3Z" style="fill:url(#linear-gradient-4)"/><path d="M151.68,58c14,18.08,16.23,51.76,16.23,51.76l-3.59,3.59-55.76,55.78s8-37.7,11.06-49.11,9.22-25,9.84-37c.71-13.73-4.84-24.38-16.32-33.73-8.49-6.93-12.45-8.62-12.45-8.62S134.83,36.37,151.68,58Z" style="fill:url(#linear-gradient-5)"/><path d="M100.82,40.42s37.2-6,50,22.12,11,53.26,11,53.26l-55.29,55.37s3.47-34.55,6.55-46,8.46-27.15,10-39.11-3.19-25.7-17.3-32.41h0Z" style="fill:url(#linear-gradient-6)"/><path d="M100.62,40.44s4.64,27.29-12.34,40.45-22.1,21.7-22.1,21.7,12-21.67,15.63-40C83.44,54.4,100.62,40.44,100.62,40.44Z" style="fill:url(#linear-gradient-7)"/><path d="M104.67,172.88s-8.24-1-5.14-27.23C103.12,115.32,133.82,77,133.82,77a208.29,208.29,0,0,0-3.45,21.21c-1,9.78,5.59,37.33-5,51.91A134.33,134.33,0,0,1,104.67,172.88Z" style="fill:url(#linear-gradient-8)"/><path d="M105.68,53.48s17.3,9.23,14,26.76c-2.15,11.48-9.28,8.5-17.89,18.63S92.11,111,92.11,111l-1.61,2.75a3.8,3.8,0,0,1-2.73,1.83l-8.47,1.24Z" style="fill:url(#linear-gradient-9)"/><path d="M316.07,129.53a60.68,60.68,0,0,1-18-2.66l1.06-4a68.08,68.08,0,0,0,17.11,2.25c10.9,0,13.86-2.83,13.86-9.9,0-8.57-.09-9.49-14.24-12.32-15.4-3.08-17.12-5.49-17.12-16.64,0-9.08,3.83-13.82,19.79-13.82A74.6,74.6,0,0,1,335,74.36l-.67,4.16a86.83,86.83,0,0,0-15.59-1.67c-12.61,0-14.34,2.67-14.34,9.57,0,9,.29,9.41,13.67,12.32,16.74,3.66,17.69,5.74,17.69,16.23C335.76,124,332.23,129.53,316.07,129.53Z" style="fill:#fff"/><path d="M380.76,73.27h21.61c12.81,0,17.49,5.08,17.49,12.82v8.65c0,7.74-4.68,12.82-17.49,12.82h-16V128.7h-5.64Zm21.7,4.41H386.4v25.47h16.06c8,0,11.76-2.33,11.76-8.41V86.09C414.22,80,410.49,77.68,402.46,77.68Z" style="fill:#fff"/><path d="M563.51,113.39c0,8.65,4.4,11.73,16,11.73A104.4,104.4,0,0,0,593.63,124l.67,4.24a96.9,96.9,0,0,1-15.3,1.25c-15.39,0-21.13-5.74-21.13-16.06v-25c0-10.32,5.74-16.06,21.13-16.06a96.9,96.9,0,0,1,15.3,1.25l-.67,4.24a104.4,104.4,0,0,0-14.15-1.08c-11.57,0-16,3.08-16,11.74Z" style="fill:#fff"/><polygon points="658.27 98.24 643.34 98.24 643.34 98.23 640.34 98.23 640.34 102.65 643.34 102.65 643.34 102.65 658.27 102.65 658.27 98.24" style="fill:#fff"/><polygon points="651.13 76.81 651.13 76.81 675.82 76.81 675.82 72.4 639.96 72.4 639.96 76.81 651.13 76.81" style="fill:#fff"/><polygon points="645.6 124.29 645.6 124.28 639.96 124.28 639.96 128.7 675.91 128.7 675.91 124.29 645.6 124.29" style="fill:#fff"/><path d="M758.71,120.19V134h-3V100.08h12.6q5.63,0,8.81,2.66a10.18,10.18,0,0,1,0,14.8q-3.18,2.65-8.81,2.65Zm0-17.33v14.52h9.58a10.53,10.53,0,0,0,6.65-1.85,7.41,7.41,0,0,0,0-10.81,10.47,10.47,0,0,0-6.65-1.86Z" style="fill:#fff"/><path d="M816,101a19.07,19.07,0,0,1,13.79,0,16.7,16.7,0,0,1,5.51,3.57,16.26,16.26,0,0,1,3.64,5.5,19,19,0,0,1,0,14,16.4,16.4,0,0,1-3.64,5.51,16.67,16.67,0,0,1-5.51,3.56,18.94,18.94,0,0,1-13.79,0,16.82,16.82,0,0,1-5.52-3.56,16.53,16.53,0,0,1-3.63-5.51,18.9,18.9,0,0,1,0-14,16.38,16.38,0,0,1,3.63-5.5A16.84,16.84,0,0,1,816,101Zm12.5,2.62a15.54,15.54,0,0,0-11.23,0,13.85,13.85,0,0,0-4.56,2.93,13.63,13.63,0,0,0-3,4.61,16.37,16.37,0,0,0,0,11.8,13.53,13.53,0,0,0,3,4.61,13.69,13.69,0,0,0,4.56,2.93,15.54,15.54,0,0,0,11.23,0,13.65,13.65,0,0,0,4.55-2.93,13.36,13.36,0,0,0,3-4.61,16.24,16.24,0,0,0,0-11.8,13.46,13.46,0,0,0-3-4.61A13.81,13.81,0,0,0,828.5,103.6Z" style="fill:#fff"/><path d="M895.62,134H893l-22.23-28.84,0,28.84h-3V100.08h2.67l22.25,28.84V100.08h3Z" style="fill:#fff"/><path d="M936.9,119.47V134h-3V119.42l-13.55-19.34h3.54l11.51,16.6L947,100.08h3.46Z" style="fill:#fff"/><polygon points="507.58 128.7 513.13 128.7 490.94 73.27 482.63 73.27 460.45 128.7 465.99 128.7 471.51 115.13 471.51 115.13 475.16 105.96 475.16 105.96 486.74 76.1 498.37 106.1 498.37 106.1 502.09 115.43 502.09 115.43 507.58 128.7" style="fill:#fff"/></svg>