<?xml version="1.0" encoding="utf-8"?>
<!-- Generator: Adobe Illustrator 23.1.1, SVG Export Plug-In . SVG Version: 6.00 Build 0)  -->
<svg version="1.1" id="Layer_1" xmlns="http://www.w3.org/2000/svg" xmlns:xlink="http://www.w3.org/1999/xlink" x="0px" y="0px"
	 viewBox="0 0 231.4 212.2" style="enable-background:new 0 0 231.4 212.2;" xml:space="preserve">
<style type="text/css">
	.st0{opacity:0.3;fill:#FFFFFF;enable-background:new    ;}
	.st1{fill:#FAFAFA;}
	.st2{fill:url(#SVGID_1_);}
	.st3{fill:url(#SVGID_2_);}
	.st4{fill:url(#SVGID_3_);}
	.st5{fill:url(#SVGID_4_);}
	.st6{fill:url(#SVGID_5_);}
	.st7{fill:url(#SVGID_6_);}
	.st8{fill:url(#SVGID_7_);}
	.st9{fill:url(#SVGID_8_);}
	.st10{fill:url(#SVGID_9_);}
</style>
<title>logo-pony-full2</title>
<path class="st0" d="M113.8,6.9c42.5,0.1,79.8,28.7,90.7,69.8c1.6-0.3,3.1-0.5,4.7-0.5C195.7,23.5,142-8.3,89.3,5.3
	c-34.8,8.9-62,36.1-71,71c1.6,0.1,3.2,0.3,4.7,0.6C34,35.7,71.2,6.9,113.8,6.9z"/>
<path class="st0" d="M204.5,124.7c-13.3,50.1-64.6,80-114.7,66.7c-32.7-8.6-58.2-34.2-66.8-66.9c-1.5,0.4-3.1,0.6-4.7,0.6
	c13.5,52.7,67.2,84.5,119.9,71c34.8-8.9,62-36.1,71-71C207.7,125.2,206.1,125,204.5,124.7z"/>
<circle class="st1" cx="17.4" cy="100.7" r="9"/>
<circle class="st1" cx="209.4" cy="100.7" r="9"/>
<linearGradient id="SVGID_1_" gradientUnits="userSpaceOnUse" x1="-34.85" y1="474.3095" x2="17.41" y2="474.3095" gradientTransform="matrix(0.96 -0.28 -0.28 -0.96 238.94 539.54)">
	<stop  offset="0" style="stop-color:#FFFFFF"/>
	<stop  offset="1" style="stop-color:#FFFFFF;stop-opacity:0.3"/>
</linearGradient>
<path class="st2" d="M105.7,53.5c0,0,9.5,5.2,13.1,14.6s2.3,19.9,0.5,23.4s-13.4,8.6-17.2,13.5s-7.2,6.8-6.7,11.2
	s-15.6,4.2-16.4,1.5S105.7,53.5,105.7,53.5z"/>
<linearGradient id="SVGID_2_" gradientUnits="userSpaceOnUse" x1="-43.21" y1="492.3815" x2="23.94" y2="492.3815" gradientTransform="matrix(0.96 -0.28 -0.28 -0.96 238.94 539.54)">
	<stop  offset="0" style="stop-color:#FFFFFF"/>
	<stop  offset="1" style="stop-color:#FFFFFF;stop-opacity:0.3"/>
</linearGradient>
<path class="st3" d="M66.6,101.3c-0.6,0.9-0.6,2.1,0,3c2.6,3.6,9.2,12.4,10.9,11.8S98.6,69.6,107,50c1.9-4.3,3.2-7.3,3.7-8.3
	c2.9-5.3,0.2-13,1.1-19.3s-11.2,17.9-11.2,17.9s0,0.2-8,7.2c-9.8,8.7-11.3,15.1-11.4,15.8v0.2l-2.5,11.6c-0.1,0.6-0.3,1.1-0.5,1.6
	l-8.2,20c-0.1,0.2-0.2,0.4-0.3,0.6L66.6,101.3z"/>
<linearGradient id="SVGID_3_" gradientUnits="userSpaceOnUse" x1="-41.8901" y1="445.7859" x2="-5.8889" y2="445.7859" gradientTransform="matrix(0.9769 -0.2139 -0.2139 -0.9769 205.3527 491.0355)">
	<stop  offset="0" style="stop-color:#FFFFFF"/>
	<stop  offset="1" style="stop-color:#FFFFFF;stop-opacity:0.3"/>
</linearGradient>
<path class="st4" d="M100.7,40.4c0,0,0.7,19.6-12.3,27.3S72.7,80.9,72.7,80.9s6.7-20.9,9.9-24.8S100.7,40.4,100.7,40.4z"/>
<linearGradient id="SVGID_4_" gradientUnits="userSpaceOnUse" x1="-17.6516" y1="454.2344" x2="6.9884" y2="494.9344" gradientTransform="matrix(0.96 -0.28 -0.28 -0.96 238.94 539.54)">
	<stop  offset="0" style="stop-color:#FFFFFF"/>
	<stop  offset="1" style="stop-color:#FFFFFF;stop-opacity:0.2"/>
</linearGradient>
<path class="st5" d="M105.9,53.7c0,0,14.1,17.7,9.4,27.4s-8.2,6.2-16.9,15s-9.5,11.5-9.5,11.5l-2,6.2l-7.6,3L105.9,53.7z"/>
<linearGradient id="SVGID_5_" gradientUnits="userSpaceOnUse" x1="18.7401" y1="428.8151" x2="32.3001" y2="494.9451" gradientTransform="matrix(0.96 -0.28 -0.28 -0.96 238.94 539.54)">
	<stop  offset="0" style="stop-color:#FFFFFF"/>
	<stop  offset="1" style="stop-color:#FFFFFF;stop-opacity:0.3"/>
</linearGradient>
<path class="st6" d="M151.7,58c14,18.1,16.2,51.8,16.2,51.8l-3.6,3.6l-55.8,55.8c0,0,8-37.7,11.1-49.1s9.2-25,9.8-37
	c0.7-13.7-4.8-24.4-16.3-33.7c-8.5-6.9-12.4-8.6-12.4-8.6S134.8,36.4,151.7,58z"/>
<linearGradient id="SVGID_6_" gradientUnits="userSpaceOnUse" x1="12.3083" y1="441.424" x2="7.3983" y2="509.714" gradientTransform="matrix(0.96 -0.28 -0.28 -0.96 238.94 539.54)">
	<stop  offset="0" style="stop-color:#FFFFFF"/>
	<stop  offset="1" style="stop-color:#FFFFFF;stop-opacity:0.1"/>
</linearGradient>
<path class="st7" d="M100.8,40.4c0,0,37.2-6,50,22.1s11,53.3,11,53.3l-55.3,55.4c0,0,3.5-34.6,6.6-46s8.5-27.2,10-39.1
	s-3.2-25.7-17.3-32.4l0,0L100.8,40.4z"/>
<linearGradient id="SVGID_7_" gradientUnits="userSpaceOnUse" x1="236.1308" y1="334.9116" x2="268.0608" y2="334.9116" gradientTransform="matrix(1.52 -0.45 -0.62 -2.08 -92.43 881.66)">
	<stop  offset="0" style="stop-color:#FFFFFF"/>
	<stop  offset="1" style="stop-color:#FFFFFF;stop-opacity:0.3"/>
</linearGradient>
<path class="st8" d="M100.6,40.4c0,0,4.6,27.3-12.3,40.5s-22.1,21.7-22.1,21.7s12-21.7,15.6-40C83.4,54.4,100.6,40.4,100.6,40.4z"/>
<linearGradient id="SVGID_8_" gradientUnits="userSpaceOnUse" x1="-131.9271" y1="716.1502" x2="-66.3971" y2="734.4402" gradientTransform="matrix(0.95 -0.68 -0.66 -0.92 693.31 724.84)">
	<stop  offset="0" style="stop-color:#FFFFFF"/>
	<stop  offset="1" style="stop-color:#FFFFFF;stop-opacity:0"/>
</linearGradient>
<path class="st9" d="M104.7,172.9c0,0-8.2-1-5.1-27.2c3.6-30.3,34.3-68.7,34.3-68.7c-1.5,7-2.7,14.1-3.4,21.2
	c-1,9.8,5.6,37.3-5,51.9C119.4,158.5,112.4,166.1,104.7,172.9z"/>
<linearGradient id="SVGID_9_" gradientUnits="userSpaceOnUse" x1="-15.9235" y1="453.2096" x2="8.7665" y2="493.9796" gradientTransform="matrix(0.96 -0.28 -0.28 -0.96 238.94 539.54)">
	<stop  offset="0" style="stop-color:#FFFFFF"/>
	<stop  offset="1" style="stop-color:#FFFFFF;stop-opacity:0.2"/>
</linearGradient>
<path class="st10" d="M105.7,53.5c0,0,17.3,9.2,14,26.8c-2.2,11.5-9.3,8.5-17.9,18.6S92.1,111,92.1,111l-1.6,2.8
	c-0.6,1-1.6,1.7-2.7,1.8l-8.5,1.2L105.7,53.5z"/>
</svg>
