<?xml version="1.0" encoding="utf-8"?>
<!-- Generator: Adobe Illustrator 24.1.0, SVG Export Plug-In . SVG Version: 6.00 Build 0)  -->
<svg version="1.1" id="Layer_1" xmlns="http://www.w3.org/2000/svg" xmlns:xlink="http://www.w3.org/1999/xlink" x="0px" y="0px"
	 viewBox="0 0 231.4 212.2" style="enable-background:new 0 0 231.4 212.2;" xml:space="preserve">
<style type="text/css">
	.st0{opacity:0.3;fill:#FFFFFF;enable-background:new    ;}
	.st1{fill:#FAFAFA;}
	.st2{fill:url(#SVGID_1_);}
	.st3{fill:url(#SVGID_2_);}
	.st4{fill:url(#SVGID_3_);}
	.st5{fill:url(#SVGID_4_);}
	.st6{fill:url(#SVGID_5_);}
	.st7{fill:url(#SVGID_6_);}
	.st8{fill:url(#SVGID_7_);}
	.st9{fill:url(#SVGID_8_);}
	.st10{fill:url(#SVGID_9_);}
</style>
<g>
	<path class="st0" d="M115.1,12.3c42.5,0.1,79.8,28.7,90.7,69.8c1.6-0.3,3.1-0.5,4.7-0.5C197,28.9,143.3-2.9,90.6,10.7
		c-34.8,8.9-62,36.1-71,71c1.6,0.1,3.2,0.3,4.7,0.6C35.3,41.1,72.5,12.3,115.1,12.3z"/>
	<path class="st0" d="M205.8,130.1c-13.3,50.1-64.6,80-114.7,66.7c-32.7-8.6-58.2-34.2-66.8-66.9c-1.5,0.4-3.1,0.6-4.7,0.6
		c13.5,52.7,67.2,84.5,119.9,71c34.8-8.9,62-36.1,71-71C209,130.6,207.4,130.4,205.8,130.1z"/>
	<circle class="st1" cx="20.7" cy="106.1" r="9"/>
	<circle class="st1" cx="210.7" cy="106.1" r="9"/>
	
		<linearGradient id="SVGID_1_" gradientUnits="userSpaceOnUse" x1="-76.9596" y1="35.7848" x2="-24.6996" y2="35.7848" gradientTransform="matrix(0.96 -0.28 0.28 0.96 137.8238 43.4272)">
		<stop  offset="0" style="stop-color:#FFFFFF"/>
		<stop  offset="1" style="stop-color:#FFFFFF;stop-opacity:0.3"/>
	</linearGradient>
	<path class="st2" d="M107,58.9c0,0,9.5,5.2,13.1,14.6s2.3,19.9,0.5,23.4s-13.4,8.6-17.2,13.5s-7.2,6.8-6.7,11.2s-15.6,4.2-16.4,1.5
		S107,58.9,107,58.9z"/>
	
		<linearGradient id="SVGID_2_" gradientUnits="userSpaceOnUse" x1="-85.3196" y1="17.7383" x2="-18.1696" y2="17.7383" gradientTransform="matrix(0.96 -0.28 0.28 0.96 137.8238 43.4272)">
		<stop  offset="0" style="stop-color:#FFFFFF"/>
		<stop  offset="1" style="stop-color:#FFFFFF;stop-opacity:0.3"/>
	</linearGradient>
	<path class="st3" d="M67.9,106.7c-0.6,0.9-0.6,2.1,0,3c2.6,3.6,9.2,12.4,10.9,11.8S99.9,75,108.3,55.4c1.9-4.3,3.2-7.3,3.7-8.3
		c2.9-5.3,0.2-13,1.1-19.3s-11.2,17.9-11.2,17.9s0,0.2-8,7.2C84.1,61.6,82.6,68,82.5,68.7v0.2L80,80.5c-0.1,0.6-0.3,1.1-0.5,1.6
		l-8.2,20c-0.1,0.2-0.2,0.4-0.3,0.6L67.9,106.7z"/>
	
		<linearGradient id="SVGID_3_" gradientUnits="userSpaceOnUse" x1="-71.7237" y1="48.449" x2="-35.7107" y2="48.449" gradientTransform="matrix(0.9769 -0.2139 0.2139 0.9769 130.1131 7.25)">
		<stop  offset="0" style="stop-color:#FFFFFF"/>
		<stop  offset="1" style="stop-color:#FFFFFF;stop-opacity:0.3"/>
	</linearGradient>
	<path class="st4" d="M102,45.8c0,0,0.7,19.6-12.3,27.3S74,86.3,74,86.3s6.7-20.9,9.9-24.8S102,45.8,102,45.8z"/>
	
		<linearGradient id="SVGID_4_" gradientUnits="userSpaceOnUse" x1="-59.7203" y1="55.9382" x2="-35.0803" y2="15.2383" gradientTransform="matrix(0.96 -0.28 0.28 0.96 137.8238 43.4272)">
		<stop  offset="0" style="stop-color:#FFFFFF"/>
		<stop  offset="1" style="stop-color:#FFFFFF;stop-opacity:0.2"/>
	</linearGradient>
	<path class="st5" d="M107.2,59.1c0,0,14.1,17.7,9.4,27.4s-8.2,6.2-16.9,15S90.2,113,90.2,113l-2,6.2l-7.6,3L107.2,59.1z"/>
	
		<linearGradient id="SVGID_5_" gradientUnits="userSpaceOnUse" x1="-23.4077" y1="81.325" x2="-9.8477" y2="15.195" gradientTransform="matrix(0.96 -0.28 0.28 0.96 137.8238 43.4272)">
		<stop  offset="0" style="stop-color:#FFFFFF"/>
		<stop  offset="1" style="stop-color:#FFFFFF;stop-opacity:0.3"/>
	</linearGradient>
	<path class="st6" d="M153,63.4c14,18.1,16.2,51.8,16.2,51.8l-3.6,3.6l-55.8,55.8c0,0,8-37.7,11.1-49.1s9.2-25,9.8-37
		c0.7-13.7-4.8-24.4-16.3-33.7c-8.5-6.9-12.4-8.6-12.4-8.6S136.1,41.8,153,63.4z"/>
	
		<linearGradient id="SVGID_6_" gradientUnits="userSpaceOnUse" x1="-29.8223" y1="68.7254" x2="-34.7323" y2="0.4354" gradientTransform="matrix(0.96 -0.28 0.28 0.96 137.8238 43.4272)">
		<stop  offset="0" style="stop-color:#FFFFFF"/>
		<stop  offset="1" style="stop-color:#FFFFFF;stop-opacity:0.1"/>
	</linearGradient>
	<path class="st7" d="M102.1,45.8c0,0,37.2-6,50,22.1s11,53.3,11,53.3l-55.3,55.4c0,0,3.5-34.6,6.6-46s8.5-27.2,10-39.1
		s-3.2-25.7-17.3-32.4l0,0L102.1,45.8z"/>
	
		<linearGradient id="SVGID_7_" gradientUnits="userSpaceOnUse" x1="109.5605" y1="74.5678" x2="141.4905" y2="74.5678" gradientTransform="matrix(1.52 -0.45 0.62 2.08 -152.6245 -21.6076)">
		<stop  offset="0" style="stop-color:#FFFFFF"/>
		<stop  offset="1" style="stop-color:#FFFFFF;stop-opacity:0.3"/>
	</linearGradient>
	<path class="st8" d="M101.9,45.8c0,0,4.6,27.3-12.3,40.5S67.5,108,67.5,108s12-21.7,15.6-40C84.7,59.8,101.9,45.8,101.9,45.8z"/>
	
		<linearGradient id="SVGID_8_" gradientUnits="userSpaceOnUse" x1="-271.0083" y1="-170.8408" x2="-205.4783" y2="-189.1308" gradientTransform="matrix(0.95 -0.68 0.66 0.92 466.8775 134.0353)">
		<stop  offset="0" style="stop-color:#FFFFFF"/>
		<stop  offset="1" style="stop-color:#FFFFFF;stop-opacity:0"/>
	</linearGradient>
	<path class="st9" d="M106,178.3c0,0-8.2-1-5.1-27.2c3.6-30.3,34.3-68.7,34.3-68.7c-1.5,7-2.7,14.1-3.4,21.2c-1,9.8,5.6,37.3-5,51.9
		C120.7,163.9,113.7,171.5,106,178.3z"/>
	
		<linearGradient id="SVGID_9_" gradientUnits="userSpaceOnUse" x1="-58.023" y1="56.9444" x2="-33.333" y2="16.1744" gradientTransform="matrix(0.96 -0.28 0.28 0.96 137.8238 43.4272)">
		<stop  offset="0" style="stop-color:#FFFFFF"/>
		<stop  offset="1" style="stop-color:#FFFFFF;stop-opacity:0.2"/>
	</linearGradient>
	<path class="st10" d="M107,58.9c0,0,17.3,9.2,14,26.8c-2.2,11.5-9.3,8.5-17.9,18.6s-9.7,12.1-9.7,12.1l-1.6,2.8
		c-0.6,1-1.6,1.7-2.7,1.8l-8.5,1.2L107,58.9z"/>
</g>
</svg>
