<?xml version="1.0" encoding="utf-8"?>
<!-- Generator: Adobe Illustrator 24.1.0, SVG Export Plug-In . SVG Version: 6.00 Build 0)  -->
<svg version="1.1" id="Layer_1" xmlns="http://www.w3.org/2000/svg" xmlns:xlink="http://www.w3.org/1999/xlink" x="0px" y="0px"
	 viewBox="0 0 186 50" style="enable-background:new 0 0 186 50;" xml:space="preserve">
<style type="text/css">
	.st0{fill:#FFFFFF;}
</style>
<g>
	<path class="st0" d="M66.1,36.9c3.9,0,6.3-1.4,8.5-3.7l-2.4-2.4c-1.8,1.7-3.4,2.7-6,2.7c-4,0-6.9-3.4-6.9-7.4V26
		c0-4.1,2.9-7.4,6.9-7.4c2.4,0,4.2,1,5.9,2.6l2.4-2.7c-2-1.9-4.3-3.3-8.2-3.3c-6.3,0-10.8,4.9-10.8,10.8v0.1
		C55.5,32.2,60,36.9,66.1,36.9z"/>
	<polygon class="st0" points="78.5,36.5 82.2,36.5 82.2,27.7 92.2,27.7 92.2,36.5 95.8,36.5 95.8,15.6 92.2,15.6 92.2,24.3 
		82.2,24.3 82.2,15.6 78.5,15.6 	"/>
	<path class="st0" d="M112,15.5h-3.4l-9.2,21.1h3.8l2.2-5.1h9.9l2.1,5.1h3.9L112,15.5z M106.7,28.2l3.6-8.4l3.6,8.4H106.7z"/>
	<path class="st0" d="M137,28.6c2.9-0.8,5-2.9,5-6.3v-0.1c0-1.8-0.6-3.4-1.7-4.5c-1.3-1.3-3.4-2.1-6-2.1h-9.3v20.9h3.7v-7.3h4.6
		l5.1,7.3h4.3L137,28.6z M128.5,26v-7h5.4c2.7,0,4.3,1.2,4.3,3.5v0.1c0,2.1-1.7,3.5-4.3,3.5H128.5z"/>
	<polygon class="st0" points="169.9,36.5 185.6,36.5 185.6,33.3 173.6,33.3 173.6,27.6 184.1,27.6 184.1,24.3 173.6,24.3 
		173.6,18.9 185.4,18.9 185.4,15.6 169.9,15.6 	"/>
	<path class="st0" d="M161.6,24.9l0,4.4l0,0V32c-1.3,1-3.1,1.6-5.1,1.6c-4.3,0-7.1-3.2-7.1-7.5V26c0-4,2.9-7.4,6.8-7.4
		c2.7,0,4.2,0.9,5.9,2.2l2.3-2.8c-2.2-1.8-4.4-2.8-8-2.8c-6.3,0-10.8,5-10.8,10.8v0.1c0,6.1,4.3,10.8,10.9,10.8
		c3.7,0,6.7-1.5,8.7-3.3v-8.8H161.6z"/>
	<polygon class="st0" points="43,17.5 40.6,15.1 32.2,23.6 23.5,23.6 23.5,14.8 27.8,10.5 29.7,8.6 29.7,8.6 32,6.3 29.5,3.9 
		21.8,11.6 14.1,3.9 11.7,6.3 20.1,14.8 20.1,23.6 11.5,23.6 3,15.2 0.6,17.6 8.4,25.3 0.6,33 3,35.5 11.5,27 20.1,27 20.1,36 
		11.9,44.3 14.3,46.7 21.8,39.1 29.3,46.7 31.8,44.2 23.5,36 23.5,27 32.2,27 40.6,35.4 43,33 35.3,25.3 	"/>
</g>
</svg>
