<?xml version="1.0" encoding="utf-8"?>
<!-- Generator: Adobe Illustrator 23.1.1, SVG Export Plug-In . SVG Version: 6.00 Build 0)  -->
<svg version="1.1" id="Layer_1" xmlns="http://www.w3.org/2000/svg" xmlns:xlink="http://www.w3.org/1999/xlink" x="0px" y="0px"
	 viewBox="0 0 218.1 82" style="enable-background:new 0 0 218.1 82;" xml:space="preserve">
<style type="text/css">
	.st0{display:none;}
	.st1{display:inline;}
	.st2{fill:#FAFAFA;}
	.st3{display:inline;fill:#FAFAFA;}
</style>
<g class="st0">
	<g id="XMLID_1_" class="st1">
		<path id="XMLID_18_" class="st2" d="M118,18.4v1.5h21.7v-1.5H118z M68.9,24.3c-6.1-0.1-12.5,3.4-12.6,9.9
			c-0.1,7.1,5.8,9,11.6,10.9c5.1,1.7,9.9,3.3,9.8,8.3c0,4.2-3.9,8.7-11.1,8.6c-4.8,0-8.5-2.3-10.6-3.6c0,0.8,0,2.2,0,2.5
			c3.1,1.7,6.8,2.6,10.7,2.7c7.3,0.1,14.7-4,14.8-11.8c0.1-6.7-5.8-8.7-11.5-10.6c-5.2-1.7-10.1-3.4-10.1-8.4c0-4.1,4-7.2,9.2-7.2
			c5,0,8.4,2.3,9.9,3.6c0-0.9,0-2.2,0-2.5C77.4,25.9,73.7,24.3,68.9,24.3z M233.4,24.8c-0.2,0.5-15.3,36.8-15.8,37.8h2.7
			c0.2-0.5,5.9-14.5,5.9-14.5h16c0,0,5.7,14.1,5.9,14.5h4.9c-1.4-3.3-9.9-23.2-9.9-23.2s-6-14.2-6.2-14.6
			C236.9,24.8,233.4,24.8,233.4,24.8z M28.5,25.1v37.4h21.9v-1.7H32.8V43h16v-1.5h-16V26.7h17.3v-1.6H28.5z M83.1,25.1v1.6h12.3
			v35.9h4.3V26.7H112v-1.6H83.1z M118.1,25.1v37.4H140v-1.7h-17.6V43h16v-1.5h-16V26.7h17.3v-1.6H118.1z M147.9,25.1v37.4h21.9v-1.7
			h-17.6V43h16v-1.5h-16V26.7h17.3v-1.6H147.9z M193.2,25.1v37.4h21.7v-1.8c-0.7,0-17.5,0.1-17.5,0.1V25.1H193.2L193.2,25.1z
			 M256.6,25.1v25.2c0,8.6,5.2,13.1,15,13.1c9.3,0,14.9-4.8,14.9-12.8V25.1h-2.2v25.5c0,7.1-4.6,11.5-12.1,11.5
			c-7.1,0-11.3-4-11.3-10.7V25.1H256.6z M294.8,25.1v37.4h12.4c6.7,0.1,12.1-1.7,15.7-5.3c3.3-3.3,5-8,5-13.9
			c0-5.7-1.7-10.4-4.9-13.6c-3.2-3.2-8-4.8-13.9-4.7L294.8,25.1L294.8,25.1z M334.9,25.1v37.4h21.9v-1.7h-17.6V43h16v-1.5h-16V26.7
			h17.3v-1.6H334.9z M364.8,25.1v37.4h4.3V44.3h8c0,0,11.5,17.9,11.7,18.2h4.7c-0.7-1.1-12.4-18.7-12.4-18.7l0.6-0.1
			c0.4-0.1,9.4-1.9,9.4-9.2c0-2.5-0.8-4.6-2.4-6.2c-2.2-2.2-5.9-3.3-10.4-3.2C378.3,25.1,364.8,25.1,364.8,25.1z M369.1,26.5h8.8
			c3.1,0,5.4,0.7,7,2.3c1.4,1.4,2.1,3.3,2.1,5.8c0,2.3-0.7,4.1-2.1,5.5c-2,1.9-5.2,2.9-9.4,2.9h-6.3V26.5H369.1z M299.2,26.6h9.3
			c4.4,0,8,1.2,10.6,3.7c3,3,4.5,7.6,4.5,13.7c0,5.8-1.4,10.1-4.3,12.9c-2.9,2.9-7.1,4.2-12.9,4.1h-7.1V26.6H299.2z M234.2,28.1
			l5.3,13.2l2.1,5.1h-14.7l0.2-0.5c0.7-1.7,4.2-10.1,6.8-16.9L234.2,28.1z"/>
	</g>
</g>
<g class="st0">
	<g class="st1">
		<path class="st2" d="M164.4,44.3c1.9,0,0.8-1.6,0.1-2.2c0,0-10.2-8.7-15.5-12.4c-3-2.1-6.2,0-6.2,0c-3.9,2.2-8.4,4.3-11.7,1.5
			c0,0-5.8-5.5-8.2-7.9s-5.1-2.4-7.9-0.8c0,0-6.2,4.4-9.2,5c-2.9,0.7-6-0.2-8.1-2.5l0,0c-0.2-0.2-4.2-4.3-7.2-7.3
			c-2.5-2.5-4.7-1.6-6.1-0.1c-3.8,3.8-11.7,11.7-14.3,13.1c-2.4,1.4-5.3,1.5-7.9,0.4c0,0-6.4-3.3-8.9-4.6c-2.1-1.2-4.7-1-6.6,0.6
			C42.8,30.4,34,37.7,30,41.7c-1.7,1.7-0.5,2.6,1.1,2.6H164.4z"/>
		<path class="st2" d="M164.5,46.8c-1.4-0.4-2.9-0.6-4.4-0.7c-1.5,0-3,0.2-4.4,0.6c-1.4,0.3-3,0.3-4.4,0c-1.8-0.4-3.7-0.6-5.5-0.6
			h-5c-1.5,0-3,0.2-4.4,0.6c-1.5,0.3-2.9,0.3-4.4,0c-1.8-0.4-3.7-0.6-5.5-0.6h-14.6c-1.8,0-3.7,0.1-5.5,0.4c-1.5,0.2-2.9,0.2-4.4,0
			c-1.8-0.3-3.7-0.4-5.5-0.4H71.9c-1.9,0-3.7,0.2-5.5,0.5c-1.5,0.3-2.9,0.3-4.4,0s-2.9-0.3-4.4,0s-2.9,0.3-4.4,0
			c-1.8-0.3-3.7-0.5-5.5-0.5h-11c-1.9,0-3.7,0.2-5.5,0.7c-1.2,0.4-1.2,0.9,0,1.3c1.8,0.4,3.7,0.6,5.5,0.7h10.9
			c1.9,0,3.7-0.2,5.5-0.5c1.5-0.3,2.9-0.3,4.4,0s2.9,0.3,4.4,0s2.9-0.3,4.4,0c1.8,0.3,3.7,0.5,5.5,0.5h24.5c1.9,0,3.7-0.1,5.6-0.3
			c1.5-0.2,2.9-0.2,4.4,0c1.8,0.2,3.7,0.3,5.5,0.3h14.6c1.9,0,3.7-0.2,5.5-0.6c1.5-0.3,2.9-0.3,4.4,0c1.4,0.3,2.9,0.5,4.4,0.6h5
			c1.9,0,3.7-0.2,5.5-0.6c1.4-0.3,3-0.3,4.4,0s2.9,0.5,4.4,0.6c1.5,0,3-0.3,4.4-0.7C165.7,47.7,165.7,47.1,164.5,46.8z"/>
		<path class="st2" d="M159.7,51.3c-1.8-0.3-3.7-0.5-5.5-0.5h-7.9c-1.8,0-3.7,0.1-5.5,0.3c-1.5,0.2-2.9,0.2-4.4,0s-2.9-0.2-4.4-0.1
			c-1.5,0.1-2.9,0.1-4.4,0c-1.2-0.1-3.7-0.2-5.5-0.2h-19c-1.9,0-3.7,0.2-5.5,0.5c-1.5,0.2-2.9,0.2-4.4,0c-1-0.2-7.6-0.5-8.8-0.5
			s-8,0.2-9.2,0.4c-1.5,0.2-2.9,0.2-4.4,0c-1.8-0.3-3.7-0.4-5.5-0.4h-2.1c-1.9,0-3.7,0.1-5.5,0.4c-1.5,0.2-2.9,0.2-4.4,0
			c-1.8-0.3-3.7-0.4-5.5-0.4h-6.5c-1.9,0-3.7,0.2-5.5,0.5c-1.2,0.3-1.2,0.8,0,1.1c1.8,0.4,3.7,0.6,5.5,0.7h6.5
			c1.8,0,3.7-0.1,5.5-0.4c1.5-0.2,2.9-0.2,4.4,0c1.8,0.2,3.7,0.4,5.5,0.4h2.1c1.9,0,3.7-0.2,5.5-0.6c1.4-0.3,3-0.3,4.4,0
			c3.1,0.4,6.1,0.5,9.2,0.6c1.2,0,7.9-0.4,8.8-0.6c1.4-0.3,3-0.3,4.4,0c1.8,0.4,3.7,0.6,5.5,0.6h19c1.9,0,3.7-0.1,5.5-0.4
			c1.5-0.2,2.9-0.2,4.4,0s2.9,0.2,4.4-0.1s2.9-0.3,4.4,0c1.8,0.3,3.7,0.5,5.5,0.5h7.9c1.9,0,3.7-0.2,5.5-0.7
			C160.9,52.1,160.9,51.6,159.7,51.3z"/>
		<path class="st2" d="M155.5,55.6c-1.8-0.4-3.7-0.6-5.5-0.6h-1.5c-1.9,0-3.7,0.2-5.5,0.6c-1.4,0.3-3,0.3-4.4,0
			c-1.8-0.4-3.7-0.6-5.5-0.6H115c-1.6,0-3.6,0.7-6.7,0.7S103,55,100.9,55H71.5c-1.8,0-4.2,0.7-6.4,0.7h-2.6c-2.2,0-4.6-0.7-6.4-0.7
			H45.5c-1.9,0-3.7,0.2-5.5,0.6c-1.2,0.3-1.2,0.9,0,1.2c1.8,0.4,3.7,0.6,5.5,0.6H56c1.8,0,4.2-0.7,6.4-0.7H65c2.2,0,4.6,0.7,6.4,0.7
			H101c2.3,0,4.1-0.7,7.1-0.7s4.6,0.7,6.5,0.7H133c1.9,0,3.7-0.2,5.5-0.6c1.4-0.3,3-0.3,4.4,0c1.8,0.4,3.7,0.6,5.5,0.6h1.5
			c1.9,0,3.7-0.2,5.5-0.6C156.7,56.5,156.7,55.9,155.5,55.6z"/>
		<path class="st2" d="M53.4,60.1c-1.3-0.3-2.6-0.5-3.9-0.5h-1.1c-1.2,0-2.5,0.2-3.7,0.5s-1.2,0.7,0,1s2.4,0.5,3.7,0.5h1.1
			c1.3,0,2.6-0.2,3.9-0.5C54.6,60.8,54.6,60.4,53.4,60.1z"/>
		<path class="st2" d="M101.9,60.1c-1.8-0.3-3.7-0.5-5.5-0.5H80c-1.9,0-3.7,0.2-5.5,0.5c-1.2,0.3-1.2,0.7,0,1
			c1.8,0.3,3.7,0.5,5.5,0.5h16.4c1.9,0,3.7-0.2,5.5-0.5C103.1,60.8,103.1,60.4,101.9,60.1z"/>
		<path class="st2" d="M130.7,60.1c-1.8-0.3-3.7-0.5-5.5-0.5h-6.8c-1.9,0-3.7,0.2-5.5,0.5c-1.2,0.3-1.2,0.7,0,1
			c1.8,0.3,3.7,0.5,5.5,0.5h6.8c1.9,0,3.7-0.2,5.5-0.5C131.9,60.8,131.9,60.4,130.7,60.1z"/>
		<path class="st2" d="M97.4,64.6c-1.8-0.3-3.7-0.4-5.5-0.4H84c-1.8,0-3.7,0.1-5.5,0.4c-1.2,0.2-1.2,0.6,0,0.8
			c1.8,0.3,3.7,0.4,5.5,0.4h7.9c1.8,0,3.7-0.1,5.5-0.4C98.6,65.2,98.6,64.8,97.4,64.6z"/>
		<path class="st2" d="M126.3,64.6c-1.5-0.2-2.9-0.4-4.4-0.4s-2.9,0.1-4.4,0.4c-1.2,0.2-1.2,0.6,0,0.8c1.5,0.2,2.9,0.4,4.4,0.4
			s2.9-0.2,4.4-0.4C127.5,65.2,127.5,64.8,126.3,64.6z"/>
		<path class="st2" d="M324.7,49.9c-0.1,0-1,0-1.8-1.3c-0.9-1.6-2-3-3.4-4.2c0.6-0.2,1.2-0.4,1.8-0.8c2.3-1.3,3.6-3.7,3.5-6.3
			c0-1.2-0.2-2.4-0.6-3.5c-0.3-0.9-0.9-1.7-1.6-2.4c-1.4-1.3-3.2-2.1-5.1-2.1h-9c-0.8,0-1.5,0.6-1.5,1.5l0,0v20.6
			c-0.1,0.8,0.5,1.6,1.3,1.7s1.6-0.5,1.7-1.3c0-0.1,0-0.2,0-0.3V32.4h7.5c0.8,0,1.6,0.2,2.3,0.6c0.6,0.3,1.1,0.8,1.4,1.4
			c0.5,0.9,0.7,2,0.7,3c0.1,1.5-0.6,3-1.9,3.7c-1.6,0.8-3.3,1.1-5,1c-0.8,0-1.4,0.6-1.5,1.3c-0.1,0.8,0.4,1.5,1.2,1.6
			c0.7,0.2,1.3,0.5,1.9,0.9c1.6,1.1,2.9,2.5,3.9,4.2c0.6,1.2,1.7,2.1,2.9,2.6c0.6,0.2,1.2,0.3,1.8,0.2c0.8-0.1,1.4-0.9,1.3-1.7
			C326.3,50.4,325.6,49.8,324.7,49.9L324.7,49.9L324.7,49.9z"/>
		<path class="st2" d="M347.2,50h-12.9v-7.3h11.1c0.8,0,1.5-0.6,1.5-1.5l0,0c0-0.8-0.7-1.5-1.5-1.5l0,0h-11.1v-7.3h12.6
			c0.8-0.1,1.4-0.8,1.3-1.7c-0.1-0.7-0.6-1.2-1.3-1.3h-14.1c-0.8,0-1.5,0.7-1.5,1.5l0,0v20.6c0,0.8,0.7,1.5,1.5,1.5l0,0h14.4
			c0.8-0.1,1.4-0.8,1.3-1.7C348.4,50.6,347.9,50.1,347.2,50L347.2,50z"/>
		<path class="st2" d="M369.4,50h-12.9v-7.3h11.1c0.8,0,1.5-0.6,1.5-1.5l0,0c0-0.8-0.7-1.5-1.5-1.5l0,0h-11.1v-7.3h12.6
			c0.8,0.1,1.6-0.5,1.7-1.3s-0.5-1.6-1.3-1.7c-0.1,0-0.2,0-0.3,0H355c-0.8,0-1.5,0.7-1.5,1.5v20.6c0,0.8,0.7,1.5,1.5,1.5h14.4
			c0.8,0.1,1.6-0.5,1.7-1.3s-0.5-1.6-1.3-1.7C369.6,50,369.5,50,369.4,50L369.4,50z"/>
		<path class="st2" d="M391.4,29.4h-14.1c-0.8,0-1.5,0.7-1.5,1.5l0,0v20.7c-0.1,0.8,0.5,1.6,1.3,1.7s1.6-0.5,1.7-1.3
			c0-0.1,0-0.2,0-0.3V43h10.9c0.8,0,1.4-0.7,1.5-1.5c0-0.8-0.6-1.5-1.5-1.5h-10.9v-7.6h12.6c0.8,0,1.5-0.6,1.5-1.5l0,0
			C392.9,30,392.2,29.4,391.4,29.4L391.4,29.4z"/>
		<path class="st2" d="M223.6,32.2c-2.4-2.5-5.7-3.8-9.1-3.8c-1.8,0-3.5,0.3-5.1,1c-1.5,0.7-2.9,1.6-4.1,2.8
			c-1.2,1.2-2.2,2.6-2.8,4.1c-0.7,1.6-1,3.3-1,5s0.3,3.4,1,5c0.7,1.5,1.6,2.9,2.8,4.1c1.2,1.2,2.6,2.1,4.1,2.8
			c1.4,0.6,2.9,0.9,4.5,1h0.6h0.6c3.2-0.2,6.2-1.5,8.4-3.8c2.4-2.4,3.7-5.7,3.7-9.1c0-1.7-0.3-3.4-1-5
			C225.7,34.7,224.8,33.3,223.6,32.2z M222.4,44.6c-1.8,4.4-6.9,6.5-11.2,4.6c-1.1-0.4-2-1.1-2.8-1.9c-1.6-1.6-2.5-3.7-2.5-6
			c0-1.1,0.2-2.3,0.7-3.3c0.4-1,1.1-2,1.9-2.7c0.8-0.8,1.8-1.4,2.8-1.9c1.1-0.4,2.2-0.7,3.4-0.7c2.3,0,4.4,0.9,6,2.5s2.4,3.8,2.4,6
			C223,42.4,222.8,43.5,222.4,44.6z"/>
		<path class="st2" d="M249.7,28.7c-1.2,0-2.2,1-2.2,2.2v12.6c0,1.3-0.2,2.6-0.8,3.7c-0.4,0.7-1,1.3-1.7,1.7c-2.4,1.1-5.2,1.1-7.6,0
			c-0.7-0.4-1.3-1-1.7-1.8c-0.6-1.1-0.8-2.4-0.8-3.7V30.8c0-1.2-1-2.2-2.2-2.2l0,0c-1.2,0-2.1,1-2.2,2.2v12.6c0,2,0.4,4,1.3,5.8
			c0.8,1.4,1.9,2.6,3.3,3.4c1.8,1,3.9,1.5,6,1.5c5.5,0,8.1-2.6,9.3-4.9c0.9-1.8,1.4-3.8,1.3-5.8V30.8
			C251.9,29.6,251,28.7,249.7,28.7C249.8,28.7,249.7,28.7,249.7,28.7z"/>
		<path class="st2" d="M274.8,28.8c-1.2,0-2.1,0.9-2.2,2.1l0,0v14.7l-13.4-16.1c-0.4-0.5-1-0.8-1.7-0.8c-0.2,0-0.5,0-0.7,0.1
			c-0.8,0.3-1.4,1.1-1.4,2v20.7c0,1.2,1,2.2,2.2,2.2s2.2-1,2.2-2.2V36.9L273.1,53c0.4,0.5,1,0.8,1.7,0.8c0.2,0,0.5,0,0.7-0.1l0,0
			c0.8-0.3,1.4-1.1,1.4-2V30.9C276.9,29.8,276,28.8,274.8,28.8z"/>
		<path class="st2" d="M299.1,32.4c-2.4-2.4-5.7-3.7-9.1-3.7h-7.5c-0.6,0-1.1,0.2-1.5,0.6s-0.7,1-0.7,1.5v20.6
			c0,1.2,0.9,2.2,2.1,2.2l0,0h7.4c1.7,0,3.4-0.3,5-1c1.5-0.6,2.9-1.5,4.1-2.7c1.2-1.1,2.1-2.5,2.8-4c0.7-1.5,1.1-3.2,1-4.8
			c0-1.7-0.3-3.3-1-4.9C301.2,34.8,300.3,33.5,299.1,32.4z M297.9,44.3c-0.9,2-2.5,3.6-4.6,4.4c-1,0.4-2.2,0.6-3.3,0.7h-5.3V33h5.3
			c2.2,0,4.4,0.9,6,2.5c0.8,0.7,1.4,1.6,1.8,2.6s0.7,2.1,0.7,3.1C298.6,42.3,298.4,43.3,297.9,44.3L297.9,44.3z"/>
		<path class="st2" d="M189.5,38.7c-4.8-1.5-4.8-3-4.8-3.8c0-1.8,1.6-2.9,4.2-2.9c1.8,0,3.4,0.9,4.2,2.5c0.5,1,1.7,1.5,2.8,1
			c1-0.5,1.5-1.7,1-2.8l0,0c-1.5-3-4.6-4.9-8-4.9c-5.8,0-8.4,3.5-8.4,7c0,4.8,4.4,6.7,7.8,7.8c4.8,1.5,4.9,2.5,5.1,3.6
			c0.1,0.6-0.1,1.3-0.5,1.8c-1.1,1-2.5,1.5-4,1.3c-3.3,0-5.5-2.8-5.6-2.8c-0.7-0.9-2-1.1-2.9-0.4c-0.9,0.7-1.1,2-0.4,2.9
			c0.1,0.2,3.5,4.5,8.9,4.5c2.7,0.2,5.2-0.8,7.1-2.7c1.2-1.4,1.8-3.2,1.5-5C196.9,41.7,194,40.1,189.5,38.7z"/>
	</g>
</g>
<g id="Layer_3" class="st0">
	<path class="st3" d="M372,7.8c-16.2,0-34,12.7-34,33.4c0,17.8,15.4,32.9,34,32.9s34-14.9,34-33.2C405.7,22.7,390.6,7.8,372,7.8z
		 M372,67.3c-14.3,0-26.5-11.9-26.5-26c0-14.9,11.9-26.8,26.5-26.8s26.5,11.9,26.5,26.5S386.6,67.3,372,67.3z M122.7,7.8
		c-16.4,0-34,12.7-34,33.4c0,17.8,15.4,32.9,34,32.9s34-14.9,34-33.2S141.2,7.8,122.7,7.8z M122.7,67.3c-14.3,0-26.5-11.9-26.5-26
		c0-14.9,11.9-26.8,26.5-26.8s26.5,11.9,26.5,26.5S137.2,67.3,122.7,67.3z M264.3,8.9h47.2v6.9h-39.8v21.5h40.1v6.9h-40.1v22h40.1
		v6.9h-47.5L264.3,8.9L264.3,8.9z M16,8.9h45.9v6.9H23.4v21.5h38.5v6.9H23.4v28.9H16V8.9z M219,50.3l18.3,22.8H228l-23.1-28.9
		c7.4,0,12.2,0,15.1-1.1c5-1.3,9-5.3,9.8-10.6c0.8-5-1.6-11.9-6.4-14.3c-4-2.1-7.2-2.4-12.2-2.4h-20.7v57.3h-7.4V8.9h26.8
		c9.3,0,13.3,1.3,15.7,2.4c1.1,0.5,2.1,1.1,3.2,1.9l0,0c9.8,6.9,11.1,22.6,2.7,31C229.3,46.8,225.6,49.2,219,50.3z"/>
</g>
<g id="Layer_4" class="st0">
	<g class="st1">
		<path class="st2" d="M46.5,63.1h45.8v10.6H33.7V8.4h12.8V63.1z"/>
		<path class="st2" d="M236.3,63.1h45.8v10.6h-58.5V8.4h12.8L236.3,63.1L236.3,63.1z"/>
		<path class="st2" d="M185.9,73.7h-60.2V8.4h60.2V19h-47.5v16h32.5v10.6h-32.5v17.6h47.5V73.7z"/>
		<path class="st2" d="M387,41c0,22.8-17.5,35.3-39.3,35.3S308.4,63.8,308.4,41s17.5-35.3,39.3-35.3C369.5,5.8,387,18.2,387,41z
			 M321.2,41c0,16.1,11.8,24.6,26.4,24.6S374.1,57,374.1,41c0-16.1-11.8-24.6-26.5-24.6C333,16.4,321.2,25,321.2,41z"/>
	</g>
</g>
<g id="Layer_5">
	<g id="XMLID_2_">
		<path id="XMLID_19_" class="st2" d="M63,80.3c-4.6-0.5-9-2.3-12.7-5.1c-0.6-0.5-1-0.6-1-0.8c0.1-0.3,4.9-6.9,5.1-6.9
			c0.1-0.1,0.3,0.1,0.7,0.3c1.8,1.1,4.5,2.3,6.5,2.9c1.9,0.5,4.6,0.4,6.6-0.1c2.8-0.8,5.3-3,6.6-5.8c0.8-1.8,1.4-4.3,1.6-6.6
			c0.1-1,0.1-1.1-0.1-1.1c-0.1,0-0.2,0.1-0.3,0.2c-0.6,0.7-2.6,1.9-4.5,2.5s-3.4,0.9-5.1,0.7c-3.3-0.2-5.7-0.8-8.5-2.2
			c-5.7-2.9-9.4-8.1-10.3-14.4c-0.1-0.7-0.2-3.4-0.2-11.5V21.7l5.1-0.1l5.1-0.1c0,0,0.2,5,0.2,10.6c0.1,9.3,0.1,10.1,0.3,11
			c0.9,3.5,3.7,6.2,7.3,7c1.3,0.2,3.2,0.2,4.3-0.2c3-0.9,5.3-3.1,6.2-6.1l0.4-1.1l0.1-10.5l0.1-10.5l5.2-0.1c4.1,0,5.2-0.1,5.3,0.1
			s0.2,24.6,0,29.2c-0.1,4.1-0.3,7-0.7,9.4c-1,7-3,11.5-6.6,14.9c-2.6,2.5-5.9,4-10.3,4.8C68.3,80.2,64.1,80.4,63,80.3z M106,60.6
			c-0.1-0.1-0.9-0.2-1.5-0.3c-3.4-0.7-6.6-1.9-9.3-3.3c-1.5-0.7-3.7-2.2-3.8-2.4c-0.1-0.1,4.6-6.3,5-6.7c0.2-0.2,0.1,0,1.1,0.6
			c1.9,1.1,4.9,2.2,7.4,2.7c1.7,0.3,5.3,0.4,6.6,0.1c1.8-0.5,2.9-1.4,2.9-2.5c0-1.3-1.1-1.9-7-3.6c-2.3-0.7-5-1.5-5.8-1.8
			c-5.3-1.9-8-4.4-9-7.8c-0.2-0.7-0.2-1.2-0.2-2.5c0-3.1,0.9-5.3,3.1-7.5c2.3-2.4,5.4-3.8,9.4-4.3c4.3-0.6,10.3,0.4,14.5,2.4
			c1,0.5,2.7,1.4,3.2,1.9l0.3,0.3l-2.5,3.3c-1.4,1.8-2.6,3.3-2.6,3.3s-0.8-0.2-1.5-0.5c-2.9-1-5.3-1.5-7.8-1.7
			c-3.3-0.1-5.2,0.5-5.8,1.8c-0.5,1.1,0,1.9,1.8,2.7c0.6,0.2,2.9,1,5.2,1.7c6.2,1.8,8.3,2.6,10.6,4.1c4.3,2.9,5.5,7.3,3.6,12.3
			c-0.6,1.7-1.2,2.5-2.3,3.6c-2.2,2.1-4.7,3.4-8.1,4.1c-1.2,0.3-1.7,0.3-4.2,0.5C107.6,60.8,107.2,60.8,106,60.6z M20.1,60.4
			c-5.8-0.6-11-3.7-14.3-8.6c-2.5-3.7-3.6-7.9-3.3-12.5C3,31,9.1,23.7,17.2,21.6c2.3-0.6,2.9-0.6,8.7-0.7l5.6-0.1l0.1-9.6l0.1-9.6
			l5.1-0.1c4.1,0,5.2-0.1,5.3,0.1c0,0.1,0.1,4.6,0.1,10c0.1,11.7-0.1,30.4-0.4,32.1c-0.5,2.7-1.4,5-2.7,7.3
			c-1.5,2.4-3.9,4.8-6.5,6.4c-1.5,0.9-3.7,1.8-5.6,2.3C25.1,60.4,21.9,60.6,20.1,60.4z M24,49.9c3.1-0.6,5.9-3.1,6.9-6.1
			c0.5-1.5,0.6-2.2,0.5-7.4l-0.1-4.9H26c-5.9,0-6.1,0-7.8,0.8c-2.6,1.2-4.4,3.3-5.2,6.1c-0.2,0.7-0.3,1.2-0.3,2.4
			c0,1.8,0.2,2.6,1,4.3c0.5,1.1,0.7,1.3,1.8,2.4c1.2,1.2,2.2,1.8,3.6,2.3C20.6,50.1,22.5,50.3,24,49.9z M145.3,60.4
			c-2.4-0.2-4.7-0.9-7.1-2.1c-3.7-1.9-6.7-4.8-8.5-8.5c-1.1-2.1-1.7-4-2.1-6.3c-0.2-1.3-0.2-4.7,0-5.8c0.8-4.6,2.7-8.2,5.8-11.1
			c3.1-3,6.7-4.7,11-5.4c6.1-0.9,12.3,1.1,16.7,5.5c2.8,2.8,4.5,6,5.4,10c0.3,1.6,0.5,4.9,0.2,6.7c-0.9,5.9-4.1,10.8-9.1,14.1
			c-2,1.3-4.8,2.3-7.3,2.7C149.2,60.5,146.6,60.5,145.3,60.4z M149.8,49.8c1.8-0.6,3-1.4,4.2-2.6c3.7-3.9,3.3-10.2-0.9-13.5
			c-0.9-0.7-2.7-1.7-3.9-1.9c-1.2-0.3-3.3-0.3-4.5,0.1c-2.5,0.6-4.7,2.4-5.9,4.7c-0.8,1.5-1,2.3-1,4.3c0,1.4,0.1,1.8,0.3,2.6
			c0.6,2.2,2,4.1,3.9,5.3c1,0.6,1.9,1,3.5,1.4c0.1,0.1,0.9,0.1,1.8,0C148.7,50,149.2,50,149.8,49.8z M171.2,59.8
			c0-0.4-0.1-19.1,0-20.6c0.6-7,4.5-12.8,10.8-16c5.5-2.8,12.2-2.9,17.7-0.1c5.3,2.6,9,7.1,10.6,12.6c0.6,2.3,0.6,2.2,0.7,13.3
			c0,6.1,0.1,10.5,0,10.5c-7.3,0-7.4,0-10.6,0c-0.1,0-0.1-3.8-0.1-9.9c0-10.7,0-10.6-0.6-12.3c-1-2.6-3.5-4.9-6.3-5.5
			c-1.3-0.3-3.3-0.3-4.7,0c-3.4,0.9-5.8,3.3-6.8,6.7c-0.2,0.6-0.2,1.8-0.2,10.9l-0.1,10.4c0,0-2.8,0.1-5.4,0.1
			C171.6,59.8,173.9,59.8,171.2,59.8z"/>
	</g>
</g>
</svg>
