<?xml version="1.0" encoding="utf-8"?>
<!-- Generator: Adobe Illustrator 23.1.1, SVG Export Plug-In . SVG Version: 6.00 Build 0)  -->
<svg version="1.1" id="Layer_1" xmlns="http://www.w3.org/2000/svg" xmlns:xlink="http://www.w3.org/1999/xlink" x="0px" y="0px"
	 viewBox="0 0 422 65.6" style="enable-background:new 0 0 422 65.6;" xml:space="preserve">
<style type="text/css">
	.st0{fill:#FAFAFA;}
</style>
<g id="XMLID_1_">
	<path id="XMLID_18_" class="st0" d="M105.4,7.1v1.7h24.6V7.1H105.4z M49.7,13.8c-6.9-0.1-14.2,3.9-14.3,11.2
		c-0.1,8.1,6.6,10.2,13.2,12.4c5.8,1.9,11.2,3.7,11.1,9.4c0,4.8-4.4,9.9-12.6,9.8c-5.4,0-9.6-2.6-12-4.1c0,0.9,0,2.5,0,2.8
		c3.5,1.9,7.7,3,12.1,3.1c8.3,0.1,16.7-4.5,16.8-13.4c0.1-7.6-6.6-9.9-13.1-12c-5.9-1.9-11.5-3.9-11.5-9.5c0-4.7,4.5-8.2,10.4-8.2
		c5.7,0,9.5,2.6,11.2,4.1c0-1,0-2.5,0-2.8C59.4,15.7,55.2,13.8,49.7,13.8z M236.4,14.4c-0.2,0.6-17.4,41.8-17.9,42.9h3.1
		c0.2-0.6,6.7-16.5,6.7-16.5h18.2c0,0,6.5,16,6.7,16.5h5.6c-1.6-3.7-11.2-26.3-11.2-26.3s-6.8-16.1-7-16.6
		C240.4,14.4,236.4,14.4,236.4,14.4z M3.9,14.8v42.4h24.9v-1.9h-20V35.1h18.2v-1.7H8.8V16.6h19.6v-1.8H3.9z M65.8,14.8v1.8h14v40.7
		h4.9V16.6h14v-1.8H65.8z M105.6,14.8v42.4h24.9v-1.9h-20V35.1h18.2v-1.7h-18.2V16.6h19.6v-1.8H105.6z M139.4,14.8v42.4h24.9v-1.9
		h-20V35.1h18.2v-1.7h-18.2V16.6h19.6v-1.8H139.4z M190.8,14.8v42.4h24.6v-2c-0.8,0-19.9,0.1-19.9,0.1V14.8H190.8L190.8,14.8z
		 M262.8,14.8v28.6c0,9.8,5.9,14.9,17,14.9c10.6,0,16.9-5.4,16.9-14.5V14.8h-2.5v28.9c0,8.1-5.2,13.1-13.7,13.1
		c-8.1,0-12.8-4.5-12.8-12.1V14.8H262.8z M306.1,14.8v42.4h14.1c7.6,0.1,13.7-1.9,17.8-6c3.7-3.7,5.7-9.1,5.7-15.8
		c0-6.5-1.9-11.8-5.6-15.4c-3.6-3.6-9.1-5.4-15.8-5.3h-16.2V14.8z M351.6,14.8v42.4h24.9v-1.9h-20V35.1h18.2v-1.7h-18.2V16.6h19.6
		v-1.8H351.6z M385.6,14.8v42.4h4.9V36.5h9.1c0,0,13.1,20.3,13.3,20.7h5.3c-0.8-1.2-14.1-21.2-14.1-21.2l0.7-0.1
		c0.5-0.1,10.7-2.2,10.7-10.4c0-2.8-0.9-5.2-2.7-7c-2.5-2.5-6.7-3.7-11.8-3.6C400.9,14.8,385.6,14.8,385.6,14.8z M390.4,16.3h10
		c3.5,0,6.1,0.8,7.9,2.6c1.6,1.6,2.4,3.7,2.4,6.6c0,2.6-0.8,4.7-2.4,6.2c-2.3,2.2-5.9,3.3-10.7,3.3h-7.2V16.3H390.4z M311.1,16.5
		h10.6c5,0,9.1,1.4,12,4.2c3.4,3.4,5.1,8.6,5.1,15.5c0,6.6-1.6,11.5-4.9,14.6c-3.3,3.3-8.1,4.8-14.6,4.7h-8.1v-39H311.1z
		 M237.3,18.2l6,15l2.4,5.8H229l0.2-0.6c0.8-1.9,4.8-11.5,7.7-19.2L237.3,18.2z"/>
</g>
</svg>
