<?xml version="1.0" encoding="utf-8"?>
<!-- Generator: Adobe Illustrator 23.1.1, SVG Export Plug-In . SVG Version: 6.00 Build 0)  -->
<svg version="1.1"
	 id="Layer_1" xmlns:cc="http://creativecommons.org/ns#" xmlns:dc="http://purl.org/dc/elements/1.1/" xmlns:rdf="http://www.w3.org/1999/02/22-rdf-syntax-ns#"
	 xmlns="http://www.w3.org/2000/svg" xmlns:xlink="http://www.w3.org/1999/xlink" x="0px" y="0px" viewBox="0 0 1200 450"
	 style="enable-background:new 0 0 1200 450;" xml:space="preserve">
<style type="text/css">
	.st0{display:none;}
	.st1{fill:#FAFAFA;}
	.st2{display:inline;}
	.st3{display:inline;fill:#FAFAFA;}
</style>
<rect class="st0" width="1200" height="450"/>
<path class="st1" d="M242.5,26.2c-9.7-0.1-19.5,0.2-26.3,1c-22.5,2.4-48.5,10.1-69.7,20.4c-65,31.8-109.6,93.7-119,165.3
	c-1.5,11.7-2,26.4-0.8,27.5c1.1,1.1,89.1,0.7,96.8-0.4c13.4-1.9,17.8-6.4,23.5-24.3c4.3-13.4,7.2-19.6,13.5-29.2
	c10.5-15.8,28.6-30.1,46.1-36.4c13.9-5,23-6.4,37.9-5.8c16,0.6,25.2,2.9,39.1,9.7c25.1,12.3,42,33.1,51.6,63.5
	c3,9.5,4.1,11.6,7.9,15.7c7.2,7.4,6.6,7.3,63,7.3h49.5l-0.3-9.5c-0.4-13.2-2.8-30.2-6.3-43.6c-22-85.5-92.9-148.1-181-159.9
	C261.8,26.7,252.2,26.2,242.5,26.2L242.5,26.2z M1053.1,123.1c-7,0-13.8,0.5-19.2,1.5c-23.9,4.2-45.8,15.6-63.4,33
	c-45.4,44.9-46.7,116.1-3,163.3c16.5,17.8,41.2,31.3,65.2,35.6c9.3,1.7,32.3,2,41,0.6c50.5-8.2,91.3-48.6,98.9-98
	c9.6-63.1-31.3-121.1-94.5-134C1071.3,123.7,1062.1,123.1,1053.1,123.1L1053.1,123.1z M588.4,128.1c-9.3,0-13.1,0.3-14,1
	c-1.3,1.1-1.5,15.4-1.5,111.4c0,60.6,0.3,110.5,0.7,110.9s10.1,0.7,21.7,0.7c19.1,0,21.4-0.2,25.1-2c2.2-1.1,5-3.2,6.1-4.8
	c1.9-2.6,2-4.7,2.5-65.2c0.3-39.7,0.9-62.5,1.5-62.5c0.5,0,26.2,28.8,57.1,64c40.6,46.3,57.5,64.8,60.9,67l4.8,3h25.6h25.6V240.1
	V128.6h-22c-24.4,0-26.2,0.4-30.7,6.7l-2.3,3.3l-0.3,62.2c-0.2,38.5-0.6,62.2-1.2,62.2c-0.5,0-26.6-29.2-57.9-64.9
	c-48.5-55.2-57.7-65.2-61.8-67.2c-4.6-2.2-6-2.4-28.6-2.7C595.3,128.2,591.6,128.2,588.4,128.1L588.4,128.1z M885.2,128.2
	c-2.5,0-5.2,0-7.9,0.1c-22.1,0.4-24.5,1-29.1,7.8l-2.3,3.3v105.7c0,58.1,0.3,106,0.7,106.4s12.9,0.6,27.8,0.4l27.1-0.3l0.3-111.2
	l0.2-111.3l-2.4-0.6C898.6,128.3,892.7,128.1,885.2,128.2L885.2,128.2z M1055.6,179.1c21.8-0.1,44.5,14.2,54.1,34.1
	c5.2,10.8,6.5,16.2,6.4,27.9c-0.1,26.4-16.5,49-42.2,58c-6.4,2.2-22.9,3.6-28.9,2.4c-17.7-3.4-36-16.4-43.7-30.9
	c-8.2-15.5-9.9-32.5-4.9-48.2c3.2-9.9,10.5-21.3,17.9-27.8C1024.6,185.5,1041.5,179.2,1055.6,179.1L1055.6,179.1z M147.5,240.6
	L143,243c-3,1.6-20.1,17.9-49.9,47.6l-45.4,45.2l3.9,7.4c14.7,27.9,39.1,55,67.3,74.7c4.1,2.8,8.1,5.2,9,5.2
	c0.8,0,24.3-22.7,52.1-50.4c43-42.8,51.3-50.6,55.3-52.1c5.8-2.2,9.4-1.6,15.1,2.4c2.3,1.6,26.2,25,53.1,51.9l48.9,49l3.6-1.8
	c2-1,8.3-5.4,14.1-9.7c13.1-9.8,32.3-28.9,41.7-41.4c7.1-9.5,16.9-24.9,20-31.5l1.7-3.6l-46-45.8c-29.9-29.8-47.4-46.5-50-47.7
	c-3.8-1.8-7.5-1.9-97-1.9L147.5,240.6L147.5,240.6z"/>
<g class="st0">
	<g class="st2">
		<path class="st1" d="M599,11c-117.9,0-213.5,95.6-213.5,213.5S481.1,438,599,438c117.9,0,213.5-95.6,213.5-213.5S716.9,11,599,11z
			 M599,423.1c-109.5,0-198.6-89.1-198.6-198.6S489.5,25.9,599,25.9c109.5,0,198.6,89.1,198.6,198.6S708.5,423.1,599,423.1z"/>
	</g>
	<g class="st2">
		<path class="st1" d="M553.1,246.9h6.2c1.5,0,2.8-1.3,2.8-2.8v-11.6h9.9c1.5,0,2.8-1.3,2.8-2.8v-5.6c0-1.5-1.3-2.8-2.8-2.8H562
			v-11.1c0-1.5-1.3-2.8-2.8-2.8h-6.2c-1.5,0-2.8,1.3-2.8,2.8v11.1h-10c-1.5,0-2.8,1.3-2.8,2.8v5.6c0,1.5,1.3,2.8,2.8,2.8h10v11.6
			C550.3,245.7,551.5,246.9,553.1,246.9z"/>
	</g>
	<path class="st3" d="M636.8,205.6c-5.7,0-10.5,2.8-13.3,5.7c-2.2-3.7-6.3-5.7-11.5-5.7c-5.2,0-9.2,2.3-11.4,3.9v-1.2
		c0-0.9-0.8-1.7-1.7-1.7h-10.5c-0.9,0-1.7,0.8-1.7,1.7v39.9c0,0.9,0.8,1.7,1.7,1.7H599c0.9,0,1.7-0.8,1.7-1.7v-26.4
		c1.4-1.7,3.8-3.5,6.6-3.5c2.9,0,4.3,1.4,4.3,4.7v25.2c0,0.9,0.8,1.7,1.7,1.7h10.6c0.9,0,1.7-0.8,1.7-1.7v-26.4
		c1.4-1.7,3.7-3.5,6.6-3.5c2.9,0,4.3,1.4,4.3,4.7v25.2c0,0.9,0.8,1.7,1.7,1.7h10.6c0.9,0,1.7-0.8,1.7-1.7v-28.8
		C650.3,210.6,645.4,205.6,636.8,205.6z"/>
	<g class="st2">
		<path class="st1" d="M468.9,179.4c-1.2,0.1-2.2,0.7-2.9,1.6l-3.3,4.5c-1.2,1.6-1,3.7,0.4,5.1c2.4,2.4,3.5,5.8,2.9,8.9
			c-0.6,3.4-2.5,6.3-5.2,8.1c-2.7,1.8-6.2,2.4-9.8,1.8c-7.4-1.4-11.8-7.4-10.6-14.5c0.6-3.1,2.8-5.9,5.8-7.3
			c1.8-0.8,2.7-2.8,2.2-4.7l-1.5-5.4c-0.3-1.1-1.1-2-2.1-2.5c-1-0.5-2.2-0.5-3.3,0c-5.2,2.3-11.9,7.2-13.8,17.6
			c-1.3,7.2,0,14.3,3.6,19.9c3.8,5.8,9.8,9.7,17.1,11c1.7,0.3,3.4,0.5,5.1,0.5c5.4,0,10.5-1.6,14.8-4.7c5.4-4,9.1-10.1,10.5-17.3
			c1.9-10.4-2.6-17.3-6.7-21.4C471.2,179.7,470,179.3,468.9,179.4z"/>
		<path class="st1" d="M510.6,140c-0.7-1.3-1.9-2.1-3.4-2.2l-14.5-0.7c1-6.2-1.7-12-7.3-15.8c-4-2.6-8.5-3.6-12.8-2.7
			c-4.4,0.9-8.2,3.7-11.1,8L450.7,143c-0.6,0.9-0.8,1.9-0.6,3c0.2,1,0.8,1.9,1.7,2.5h0l35.2,23.4c0.7,0.4,1.4,0.7,2.2,0.7
			c0.3,0,0.5,0,0.8-0.1c1-0.2,1.9-0.8,2.5-1.7l3.4-5.1c0.6-0.9,0.8-1.9,0.6-3c-0.2-1-0.8-1.9-1.7-2.5l-10.3-6.8l2.1-3.2l16.3,1.3
			c1.4,0.1,2.8-0.5,3.7-1.8l3.8-5.8C511.2,142.8,511.3,141.3,510.6,140z M478.3,139.4l-4.6,6.9l-6.8-4.5l4.6-6.9
			c1.6-2.3,3.9-3,6-1.7c1,0.7,1.7,1.6,1.8,2.7C479.5,137,479.2,138.2,478.3,139.4z"/>
	</g>
	<path class="st3" d="M550.4,106l-3.3-4.5c-1.2-1.7-3.6-2-5.2-0.8l-16.7,12.2l-4.4-6L537.1,95c0.8-0.6,1.3-1.5,1.5-2.5
		c0.2-1-0.1-2-0.7-2.8l-3.3-4.5c-1.2-1.7-3.6-2-5.2-0.8l-16.2,11.9l-3.9-5.3l16.7-12.2c0.8-0.6,1.3-1.5,1.5-2.5c0.2-1-0.1-2-0.7-2.8
		l-3.3-4.5c-1.2-1.7-3.6-2-5.2-0.8l-25.2,18.4c-1.7,1.2-2,3.6-0.8,5.2l26.9,36.8c0.6,0.8,1.5,1.3,2.5,1.5c0.2,0,0.4,0,0.6,0
		c0.8,0,1.6-0.3,2.2-0.7l25.2-18.4C551.3,110,551.6,107.6,550.4,106z"/>
	<path class="st3" d="M608.8,93.3L589,52.6c-0.7-1.5-2.3-2.4-3.9-2.2l-9.7,0.8c-1.6,0.1-3,1.3-3.5,2.9l-12.7,43.5
		c-0.4,1.3-0.1,2.6,0.7,3.6c0.8,0.9,1.9,1.5,3.1,1.5c0.1,0,0.2,0,0.3,0l7.1-0.6c1.7-0.1,3.1-1.3,3.5-2.9l1.5-5.3l16.7-1.4l2.4,5
		c0.7,1.5,2.3,2.4,3.9,2.3l7.1-0.6c1.3-0.1,2.5-0.9,3.1-2C609.3,95.9,609.4,94.5,608.8,93.3z M586.9,79.9l-8.3,0.7l3.2-11.8
		L586.9,79.9z"/>
	<path class="st3" d="M667.9,63.6l-30.2-13.3c-1-0.4-2.1-0.5-3.1-0.1c-1,0.4-1.8,1.1-2.2,2.1l-2,4.5c-0.4,1-0.4,2.1-0.1,3
		c0.4,1,1.1,1.8,2.1,2.2l8.7,3.8l-13.4,30.6c-0.9,2,0,4.4,2,5.3l5.6,2.5c0.5,0.2,1.1,0.3,1.6,0.3c0.5,0,1-0.1,1.4-0.3
		c1-0.4,1.8-1.1,2.2-2.1l13.4-30.6l8.6,3.8c1,0.4,2,0.4,3.1,0.1c1-0.4,1.8-1.1,2.2-2.1l2-4.5C670.8,66.8,669.9,64.5,667.9,63.6z"/>
	<path class="st3" d="M702.1,88l-4.7-3.9c-0.8-0.7-1.9-1-2.9-0.9c-1.1,0.1-2,0.6-2.7,1.4l-27,32.5c-0.7,0.8-1,1.9-0.9,2.9
		c0.1,1.1,0.6,2,1.4,2.7l4.7,3.9c0.7,0.6,1.6,0.9,2.5,0.9c1.2,0,2.3-0.5,3.1-1.4l27-32.5c0.7-0.8,1-1.9,0.9-2.9
		C703.5,89.6,703,88.7,702.1,88z"/>
	<path class="st3" d="M749.3,149.8l-3.6-6.1c-0.9-1.4-2.5-2.2-4.2-1.9l-29.8,5.8l19.2-23.5c1.1-1.3,1.2-3.1,0.3-4.6l-3.6-6.1
		c-0.7-1.1-1.9-1.9-3.2-1.9c-1.3-0.1-2.6,0.5-3.4,1.5l-27.9,35.7c-1,1.3-1.1,3.1-0.3,4.5l5,8.3c0.7,1.2,2,1.9,3.4,1.9
		c0.2,0,0.4,0,0.7-0.1l44.7-7.7c1.3-0.2,2.4-1.1,2.9-2.3C750,152.3,749.9,151,749.3,149.8z"/>
	<path class="st3" d="M770.6,204.6l-8.4-26.8c-0.3-1-1-1.8-2-2.3c-0.9-0.5-2-0.6-3-0.3l-39.4,12.3c-1,0.3-1.8,1-2.3,2
		c-0.5,0.9-0.6,2-0.3,3l8.4,26.8c0.3,1,1,1.8,2,2.3c0.6,0.3,1.2,0.5,1.8,0.5c0.4,0,0.8-0.1,1.2-0.2l4.5-1.4c2.1-0.7,3.3-2.9,2.6-5
		l-5.5-17.4l5.7-1.8l5.3,17c0.7,2.1,2.9,3.3,5,2.6l4.5-1.4c1-0.3,1.8-1,2.3-2s0.6-2,0.3-3l-5.3-17l5-1.6l5.5,17.4c0.3,1,1,1.8,2,2.3
		c0.9,0.5,2,0.6,3,0.3l4.5-1.4C770.1,209,771.3,206.7,770.6,204.6z"/>
	<g class="st2">
		<path class="st1" d="M723.1,330.3c-0.7-0.7-1.6-1.2-2.6-1.2c-1-0.1-2,0.3-2.7,1l-12.3,11.2l-23.8-26.1c-0.7-0.7-1.6-1.2-2.6-1.2
			c-1,0-1.9,0.3-2.7,1l-4.9,4.4c-1.5,1.4-1.6,3.7-0.2,5.3l29.9,32.8c0.7,0.7,1.6,1.2,2.6,1.2c0.1,0,0.1,0,0.2,0c0.9,0,1.8-0.3,2.5-1
			l19.9-18.2c1.5-1.4,1.6-3.7,0.2-5.3L723.1,330.3z"/>
	</g>
	<g class="st2">
		<path class="st1" d="M752.6,285.7l-13.7-6.1l-20.4-24.7c-0.7-0.9-1.8-1.4-2.9-1.4c-1.6,0-2.9,0.9-3.5,2.4l-2.6,6.8
			c-0.5,1.3-0.2,2.9,0.8,3.9l13.8,14.5l-20.6,0c-1.4,0-2.8,0.9-3.4,2.2l-2.5,5.4c-0.5,1.2-0.4,2.5,0.2,3.6c0.7,1.1,1.8,1.7,3.1,1.7
			l32,0.4l14.6,4.6c0.4,0.1,0.7,0.2,1.1,0.2c1.5,0,2.9-1,3.5-2.4l2.4-6.3C755.3,288.6,754.4,286.5,752.6,285.7z"/>
	</g>
	<g class="st2">
		<path class="st1" d="M652,169.2v-7.5c0-2.1-1.7-3.7-3.7-3.7H540.1c-2.1,0-3.7,1.7-3.7,3.7v7.5c0,2.1,1.7,3.7,3.7,3.7h108.1
			C650.3,173,652,171.3,652,169.2z"/>
	</g>
	<g class="st2">
		<path class="st1" d="M652,288.6v-7.5c0-2.1-1.7-3.7-3.7-3.7H540.1c-2.1,0-3.7,1.7-3.7,3.7v7.5c0,2.1,1.7,3.7,3.7,3.7h108.1
			C650.3,292.3,652,290.6,652,288.6z"/>
	</g>
	<g class="st2">
		<path class="st1" d="M473.6,292.7c-1.2-3.9-2.8-8.4-4.9-13.3c-1.2-2.9-1.1-4.1-1-4.5c0.2-0.7,0.9-1.3,2.1-1.8
			c1.4-0.7,2.5-0.8,3.2-0.3c0.6,0.4,1.6,1.6,3.3,5.3c1.6,3.4,1.6,4.7,1.5,5.1c-0.1,0.3-0.3,0.6-0.6,1c-1.6,1.7-2,4.1-1.1,6.2
			l2.9,6.3c0.7,1.4,2.4,2.1,3.8,1.4c5.1-2.5,8.1-5.5,8.9-9c0.8-3.4-0.5-8.9-4.1-16.6c-3.4-7.4-6.7-12-10-14.2
			c-3.4-2.2-8.2-1.9-14.5,1c-5.7,2.6-8.9,5.9-9.5,9.7c-0.6,3.7,0.9,9.7,4.6,18.2c1.6,3.7,1.8,5,1.8,5.5c0,0.4-0.4,1.1-2.4,2
			c-1.6,0.7-2.7,0.9-3.5,0.4c-0.5-0.3-1.5-1.3-3.4-5.4c-1.8-3.9-2-5.6-1.9-6.4c0.1-0.5,0.4-1,0.9-1.4c1.7-1.6,1.9-4.1,1-6.2
			l-2.8-6.1c-0.4-0.8-1.1-1.4-2-1.6c-0.7-0.2-1.5,0-2.1,0.4c-3.9,2.1-6.6,4.7-8.1,7.5c-1.9,3.6-0.7,9.8,3.6,19.1
			c3.8,8.3,7.4,13.1,11,14.8c3.6,1.7,8,1.3,13.2-1c4.1-1.9,6.9-3.8,8.5-5.7C474.4,300.4,474.9,296.8,473.6,292.7z"/>
	</g>
	<g class="st2">
		<path class="st1" d="M593.9,348.5c-2.4-3.7-7.2-5.9-14.1-6.5l-24.1-2.2c-2-0.2-3.8,1.3-4,3.3l-4.4,47.7c-0.2,2,1.3,3.8,3.3,4
			l8.6,0.8c2,0.2,3.8-1.3,4-3.3l0.6-6.3c0.2-2,2-3.5,4-3.3l7.5,0.7c7.5,0.7,12.6-0.2,15.6-2.7c3-2.5,4.9-7.7,5.6-15.8
			C597.2,357.6,596.3,352.1,593.9,348.5z M580.2,362.8c-0.4,4.4-1.1,5.5-1.4,5.8c-0.3,0.3-1.4,0.8-4.6,0.5l-5.1-0.5
			c-2-0.2-3.5-2-3.3-4l0.5-5.9c0.2-2,2-3.5,4-3.3l5.7,0.5c1.8,0.2,3,0.7,3.6,1.5C580,357.8,580.5,359.1,580.2,362.8z"/>
	</g>
	<g class="st2">
		<path class="st1" d="M653.7,335.2c-3.8-2-8.9-1.6-15.1,1.1l-21.7,9.4c-1.8,0.8-2.7,2.9-1.9,4.7l18.6,42.9c0.8,1.8,2.9,2.7,4.7,1.9
			l7.7-3.4c1.8-0.8,2.7-2.9,1.9-4.7l-2.4-5.6c-0.8-1.8,0-4,1.9-4.7l6.8-2.9c6.7-2.9,10.7-6.1,12.1-9.6c1.4-3.6,0.6-8.8-2.6-16.1
			C660.8,341.4,657.4,337.1,653.7,335.2z M648.7,353.8c1.7,3.9,1.6,5.2,1.5,5.6c-0.1,0.5-0.8,1.4-3.7,2.6l-4.6,2
			c-1.8,0.8-4,0-4.7-1.9l-2.3-5.3c-0.8-1.8,0-4,1.9-4.7l5.1-2.2c1.6-0.7,2.9-0.9,3.8-0.5C646.2,349.6,647.2,350.5,648.7,353.8z"/>
	</g>
	<g class="st2">
		<path class="st1" d="M535.8,331.5l-4.1-3.4c-2-1.7-5.1-1.4-6.8,0.6l-18.5,22.1c-0.6,0.7-1.1,1.2-1.6,1.6c-1.5,1.3-3.7,1.3-5.2,0
			l-4.9-4.1c-0.9-0.8-1.4-1.9-1.4-3.1c0-0.3,0-0.7,0.2-1.2c0,0,0-0.1,0-0.1c0.1-0.1,0.1-0.3,0.2-0.4c0.1-0.1,0.1-0.2,0.2-0.3
			c0.3-0.6,0.8-1.3,1.4-2l18.4-22c1.7-2,1.4-5.1-0.6-6.8L509,309c-2-1.7-5.1-1.4-6.8,0.6l-19.1,22.8c-4.8,5.8-6.6,10.7-5.3,14.6
			c1.3,3.8,5.2,8.3,11.9,13.9c6,5,10.9,7.5,15.1,7.5c4.2,0.1,8.5-2.5,12.9-7.8l18.7-22.3C538.1,336.2,537.9,333.2,535.8,331.5z"/>
	</g>
</g>
</svg>
