<svg id="Layer_1" data-name="Layer 1" xmlns="http://www.w3.org/2000/svg" viewBox="0 0 537.22 60"><defs><style>.cls-1{fill:#fff;fill-rule:evenodd;}</style></defs><path class="cls-1" d="M129.53,21.41l8.76-9h-14.2l-8.64,9Zm86.12,0,8.77-9h-14.2l-8.64,9ZM324.25,38l6.19-6h-5.32l-6.77,6ZM442.52,21.41l8.76-9h-14.2l-8.63,9ZM512.46,38h7.32l5.75-6h-6.65ZM17.9,44.18h19L16.37,65H31.42L63.71,32.05h8.54l-6.2,5.72-.4.39-.35.45-.27.51-.19.52-.11.57v.56l.07.57.17.55.26.5.32.47.39.41.45.35.5.26.54.19.56.09.57,0h70.58l.58-.07.59-.14.58-.18.54-.25.51-.31.5-.35.44-.4,9.46-10.43h7.22L151.4,40l-.43.46-.3.58-.13.64,0,.63.21.62.36.53.5.42.59.26.64.1h73.86l11.79-12.13h6.07l-7.18,7.23-.46.6-.29.7-.1.74.11.76.29.68.47.6.6.44.69.29.75.09h26.45L246.39,64.78h14.19l30.94-32.73h19.42l-7.06,7.29-.23.27-.2.29-.19.3-.15.31-.12.31-.08.33-.05.33v.31l0,.31.07.3.13.29.16.27.23.27.27.23.33.2.39.18.45.13.5.11.57.06.66,0h51l1.17-.09,1.27-.17,1.4-.3,1.49-.43,1.56-.6,1.5-.69,1.45-.81,1.38-.89,1.32-1,8.08-7.14h6.77l-7,7.49-.48.56-.3.67-.11.74.1.74.29.67.48.57.61.42.7.24.74,0h70.41l.68,0,.67-.1.68-.14.64-.21.64-.24.63-.29.6-.33.56-.39.54-.42.5-.46L465.49,32h6.65l-6,5.49-.45.42-.4.49L465,39l-.2.6-.1.61,0,.63.1.62L465,42l.32.54.4.48.48.41.54.31.58.23.61.12h.63l81,0,.57,0,.59-.15.54-.19.5-.25.46-.33.4-.37.32-.39.28-.42.22-.47.13-.44.05-.47,0-.45-.11-.44-.24-.39-.32-.38-.42-.33-.54-.25-.66-.22-.77-.11-.91,0H534.41l6.65-7,.3-.36.27-.34.2-.35.16-.36.12-.35.06-.34,0-.35,0-.32-.06-.3-.12-.3-.13-.29-.19-.26-.22-.24-.27-.22-.29-.19-.33-.15-.36-.12-.39-.11-.43-.06H511.91l-12.22,12H480.6L486,33.4l.39-.38.38-.42.33-.42.26-.46.2-.49.16-.48.08-.49,0-.48-.05-.49-.11-.48-.18-.44-.26-.45-.35-.4-.39-.34-.52-.34-.59-.29-.67-.21-.77-.19-.87-.08-.93,0H457.64l-12,12H426.7l10.87-12H424.25l-12.32,12H391.87l6.32-4.44.37-.36.34-.37.34-.41.24-.44.23-.46.15-.48.08-.51,0-.5v-.51l-.07-.5-.19-.51-.23-.45-.25-.44-.38-.37-.45-.37-.52-.3-.6-.27-.66-.19-.76-.11H383.76l.13-2.1H373.24L372,25.33l-1.28,1.31-1.34,1.26L368,29.09l-1.43,1.14-1.46,1.1-1.62,1.15-1.69,1.08-1.74,1-1.75.89-1.8.74-1.82.64-1.88.52-1.95.38-2,.24-2.12.12h-8.36l8.21-6.65.32-.29.28-.29.24-.33.19-.32.16-.36.11-.35.05-.35v-.36l0-.35-.08-.36-.13-.32-.2-.3-.21-.3-.3-.26-.32-.24-.39-.19-.43-.17-.46-.13-.55-.09-.54,0h-47L309.07,15l1-.69,1-.59,1.07-.52,1.1-.41,1.14-.3,1.16-.2,1.18-.1h9.18L332,5H313.54l-1,0-1,.07-1.05.12-1.06.18-1.05.21-1.06.27-1.08.33-1.06.4L304,7.08,303,7.6l-1.11.59-1.06.65-1.11.75-1.09.8-1.1.9-1.09,1-1.1,1.08L282.7,26.07h-8.54l-5.32,6.31H278l-7.23,5.68H252.31l6.41-5.56.29-.32.26-.31.22-.37.18-.4.15-.4.11-.43.06-.42v-.42l-.06-.43-.07-.42-.17-.42-.2-.37-.27-.37-.34-.32-.4-.29-.48-.27-.53-.21-.63-.16-.7-.08h-26l-12.54,12h-18.3l11.31-12h-14.3l-11.54,12H165.55l7.11-5,.33-.31.33-.33.26-.39.24-.39.19-.46.16-.44.1-.48v-1l-.1-.47-.17-.46-.25-.44-.33-.41-.39-.38-.49-.32-.57-.28-.68-.23-.78-.15-.86-.1H144.47l-12,12H113.19l11-12H110.09l-11.31,12H79.69l6.18-5.18.5-.48.39-.57.3-.62.18-.67.06-.7-.07-.68L87,28.5l-.32-.63-.42-.55-.51-.46-.59-.38-.65-.25-.67-.13-.7,0H68.25l2.45-3.32h-13L42.28,38.06H22.76L17.9,44.18Z" transform="translate(-16.37 -5)"/></svg>