<?xml version="1.0" encoding="utf-8"?>
<!-- Generator: Adobe Illustrator 23.1.1, SVG Export Plug-In . SVG Version: 6.00 Build 0)  -->
<svg version="1.1" id="Layer_1" xmlns="http://www.w3.org/2000/svg" xmlns:xlink="http://www.w3.org/1999/xlink" x="0px" y="0px"
	 viewBox="0 0 68.8 80" style="enable-background:new 0 0 68.8 80;" xml:space="preserve">
<style type="text/css">
	.st0{fill:#FFFFFF;}
</style>
<g>
	<path class="st0" d="M11.2,51.7h3.5c0.9,0,1.6-0.7,1.6-1.6c0,0,0,0,0,0v-6.5h5.6c0.9,0,1.6-0.7,1.6-1.5c0,0,0,0,0,0V39
		c0-0.9-0.7-1.6-1.5-1.6c0,0,0,0,0,0h-5.6v-6.2c0-0.9-0.7-1.6-1.6-1.6h-3.5c-0.9,0-1.6,0.7-1.6,1.5c0,0,0,0,0,0v6.2H4.1
		c-0.9,0-1.6,0.7-1.6,1.6c0,0,0,0,0,0v3.1c0,0.9,0.7,1.6,1.6,1.6c0,0,0,0,0,0h5.6v6.5C9.7,51,10.4,51.7,11.2,51.7z"/>
	<path class="st0" d="M58.1,28.6c-2.8,0-5.5,1.2-7.4,3.2c-1.2-2.1-3.5-3.2-6.4-3.2c-2.3,0-4.5,0.8-6.4,2.2v-0.7c0-0.5-0.4-1-1-1
		h-5.9c-0.5,0-1,0.5-1,1v22.3c0,0.5,0.4,1,0.9,1c0,0,0,0,0.1,0h5.9c0.5,0,0.9-0.4,1-0.9c0,0,0,0,0-0.1V37.7c0.9-1.2,2.2-1.9,3.7-2
		c1.6,0,2.4,0.8,2.4,2.6v14.1c0,0.5,0.4,1,0.9,1c0,0,0.1,0,0.1,0h5.9c0.6,0,1-0.4,1-1V37.7c0.9-1.2,2.2-1.9,3.7-2
		c1.7,0,2.4,0.8,2.4,2.6v14.1c0,0.6,0.4,1,1,1h5.9c0.5,0,1-0.4,1-0.9c0,0,0-0.1,0-0.1V36.3C65.6,31.4,62.9,28.6,58.1,28.6z"/>
	<path class="st0" d="M4,2h60.5c1.2,0,2.1,0.9,2.1,2.1v4.2c0,1.2-0.9,2.1-2.1,2.1H4c-1.2,0-2.1-0.9-2.1-2.1V4.1C1.9,2.9,2.9,2,4,2z"
		/>
	<path class="st0" d="M4,68.8h60.5c1.2,0,2.1,0.9,2.1,2.1V75c0,1.2-0.9,2.1-2.1,2.1H4c-1.2,0-2.1-0.9-2.1-2.1v-4.2
		C1.9,69.7,2.9,68.8,4,68.8z"/>
</g>
</svg>
