<?xml version="1.0" encoding="utf-8"?>
<!-- Generator: Adobe Illustrator 23.1.1, SVG Export Plug-In . SVG Version: 6.00 Build 0)  -->
<svg version="1.1" id="Layer_1" xmlns="http://www.w3.org/2000/svg" xmlns:xlink="http://www.w3.org/1999/xlink" x="0px" y="0px"
	 viewBox="0 0 422 82" style="enable-background:new 0 0 422 82;" xml:space="preserve">
<style type="text/css">
	.st0{display:none;}
	.st1{display:inline;fill:#FAFAFA;}
	.st2{fill:#FAFAFA;}
</style>
<g>
	<g id="XMLID_1_" class="st0">
		<path id="XMLID_18_" class="st1" d="M118,18.4v1.5h21.7v-1.5H118z M68.9,24.3c-6.1-0.1-12.5,3.4-12.6,9.9
			c-0.1,7.1,5.8,9,11.6,10.9c5.1,1.7,9.9,3.3,9.8,8.3c0,4.2-3.9,8.7-11.1,8.6c-4.8,0-8.5-2.3-10.6-3.6c0,0.8,0,2.2,0,2.5
			c3.1,1.7,6.8,2.6,10.7,2.7c7.3,0.1,14.7-4,14.8-11.8c0.1-6.7-5.8-8.7-11.5-10.6c-5.2-1.7-10.1-3.4-10.1-8.4c0-4.1,4-7.2,9.2-7.2
			c5,0,8.4,2.3,9.9,3.6c0-0.9,0-2.2,0-2.5C77.4,25.9,73.7,24.3,68.9,24.3z M233.4,24.8c-0.2,0.5-15.3,36.8-15.8,37.8h2.7
			c0.2-0.5,5.9-14.5,5.9-14.5h16c0,0,5.7,14.1,5.9,14.5h4.9c-1.4-3.3-9.9-23.2-9.9-23.2s-6-14.2-6.2-14.6
			C236.9,24.8,233.4,24.8,233.4,24.8z M28.5,25.1v37.4h21.9v-1.7H32.8V43h16v-1.5h-16V26.7h17.3v-1.6H28.5z M83.1,25.1v1.6h12.3
			v35.9h4.3V26.7H112v-1.6H83.1z M118.1,25.1v37.4H140v-1.7h-17.6V43h16v-1.5h-16V26.7h17.3v-1.6H118.1z M147.9,25.1v37.4h21.9v-1.7
			h-17.6V43h16v-1.5h-16V26.7h17.3v-1.6H147.9z M193.2,25.1v37.4h21.7v-1.8c-0.7,0-17.5,0.1-17.5,0.1V25.1H193.2L193.2,25.1z
			 M256.6,25.1v25.2c0,8.6,5.2,13.1,15,13.1c9.3,0,14.9-4.8,14.9-12.8V25.1h-2.2v25.5c0,7.1-4.6,11.5-12.1,11.5
			c-7.1,0-11.3-4-11.3-10.7V25.1H256.6z M294.8,25.1v37.4h12.4c6.7,0.1,12.1-1.7,15.7-5.3c3.3-3.3,5-8,5-13.9
			c0-5.7-1.7-10.4-4.9-13.6c-3.2-3.2-8-4.8-13.9-4.7L294.8,25.1L294.8,25.1z M334.9,25.1v37.4h21.9v-1.7h-17.6V43h16v-1.5h-16V26.7
			h17.3v-1.6H334.9z M364.8,25.1v37.4h4.3V44.3h8c0,0,11.5,17.9,11.7,18.2h4.7c-0.7-1.1-12.4-18.7-12.4-18.7l0.6-0.1
			c0.4-0.1,9.4-1.9,9.4-9.2c0-2.5-0.8-4.6-2.4-6.2c-2.2-2.2-5.9-3.3-10.4-3.2C378.3,25.1,364.8,25.1,364.8,25.1z M369.1,26.5h8.8
			c3.1,0,5.4,0.7,7,2.3c1.4,1.4,2.1,3.3,2.1,5.8c0,2.3-0.7,4.1-2.1,5.5c-2,1.9-5.2,2.9-9.4,2.9h-6.3V26.5H369.1z M299.2,26.6h9.3
			c4.4,0,8,1.2,10.6,3.7c3,3,4.5,7.6,4.5,13.7c0,5.8-1.4,10.1-4.3,12.9c-2.9,2.9-7.1,4.2-12.9,4.1h-7.1V26.6H299.2z M234.2,28.1
			l5.3,13.2l2.1,5.1h-14.7l0.2-0.5c0.7-1.7,4.2-10.1,6.8-16.9L234.2,28.1z"/>
	</g>
</g>
<g>
	<g>
		<path class="st2" d="M157.9,44.8c2.2,0,0.9-1.8,0.1-2.5c0,0-11.6-9.9-17.7-14.1c-3.4-2.4-7.1,0-7.1,0c-4.4,2.5-9.6,4.9-13.3,1.7
			c0,0-6.6-6.3-9.3-9s-5.8-2.7-9-0.9c0,0-7.1,5-10.5,5.7c-3.3,0.8-6.8-0.2-9.2-2.8l0,0c-0.2-0.2-4.8-4.9-8.2-8.3
			c-2.8-2.8-5.4-1.8-6.9-0.1c-4.3,4.3-13.3,13.3-16.3,14.9c-2.7,1.6-6,1.7-9,0.5c0,0-7.3-3.8-10.1-5.2c-2.4-1.4-5.4-1.1-7.5,0.7
			c-4.4,3.8-14.5,12.1-19,16.6c-1.9,1.9-0.6,3,1.3,3H157.9z"/>
		<path class="st2" d="M158,47.6c-1.6-0.5-3.3-0.7-5-0.8c-1.7,0-3.4,0.2-5,0.7c-1.6,0.3-3.4,0.3-5,0c-2.1-0.5-4.2-0.7-6.3-0.7H131
			c-1.7,0-3.4,0.2-5,0.7c-1.7,0.3-3.3,0.3-5,0c-2.1-0.5-4.2-0.7-6.3-0.7H98.1c-2.1,0-4.2,0.1-6.3,0.5c-1.7,0.2-3.3,0.2-5,0
			c-2.1-0.3-4.2-0.5-6.3-0.5h-28c-2.2,0-4.2,0.2-6.3,0.6c-1.7,0.3-3.3,0.3-5,0c-1.7-0.3-3.3-0.3-5,0c-1.7,0.3-3.3,0.3-5,0
			C29.2,47,27,46.8,25,46.8H12.5c-2.2,0-4.2,0.2-6.3,0.8c-1.4,0.5-1.4,1,0,1.5c2.1,0.5,4.2,0.7,6.3,0.8h12.4c2.2,0,4.2-0.2,6.3-0.6
			c1.7-0.3,3.3-0.3,5,0c1.7,0.3,3.3,0.3,5,0c1.7-0.3,3.3-0.3,5,0c2.1,0.3,4.2,0.6,6.3,0.6h27.9c2.2,0,4.2-0.1,6.4-0.3
			c1.7-0.2,3.3-0.2,5,0c2.1,0.2,4.2,0.3,6.3,0.3h16.6c2.2,0,4.2-0.2,6.3-0.7c1.7-0.3,3.3-0.3,5,0c1.6,0.3,3.3,0.6,5,0.7h5.7
			c2.2,0,4.2-0.2,6.3-0.7c1.6-0.3,3.4-0.3,5,0s3.3,0.6,5,0.7c1.7,0,3.4-0.3,5-0.8C159.4,48.6,159.4,48,158,47.6z"/>
		<path class="st2" d="M152.6,52.7c-2.1-0.3-4.2-0.6-6.3-0.6h-9c-2.1,0-4.2,0.1-6.3,0.3c-1.7,0.2-3.3,0.2-5,0s-3.3-0.2-5-0.1
			c-1.7,0.1-3.3,0.1-5,0c-1.4-0.1-4.2-0.2-6.3-0.2H88.1c-2.2,0-4.2,0.2-6.3,0.6c-1.7,0.2-3.3,0.2-5,0c-1.1-0.2-8.7-0.6-10-0.6
			s-9.1,0.2-10.5,0.5c-1.7,0.2-3.3,0.2-5,0c-2.1-0.3-4.2-0.5-6.3-0.5h-2.4c-2.2,0-4.2,0.1-6.3,0.5c-1.7,0.2-3.3,0.2-5,0
			c-2.1-0.3-4.2-0.5-6.3-0.5h-7.4c-2.2,0-4.2,0.2-6.3,0.6c-1.4,0.3-1.4,0.9,0,1.3c2.1,0.5,4.2,0.7,6.3,0.8h7.4
			c2.1,0,4.2-0.1,6.3-0.5c1.7-0.2,3.3-0.2,5,0c2.1,0.2,4.2,0.5,6.3,0.5H45c2.2,0,4.2-0.2,6.3-0.7c1.6-0.3,3.4-0.3,5,0
			c3.5,0.5,6.9,0.6,10.5,0.7c1.4,0,9-0.5,10-0.7c1.6-0.3,3.4-0.3,5,0c2.1,0.5,4.2,0.7,6.3,0.7h21.6c2.2,0,4.2-0.1,6.3-0.5
			c1.7-0.2,3.3-0.2,5,0c1.7,0.2,3.3,0.2,5-0.1c1.7-0.3,3.3-0.3,5,0c2.1,0.3,4.2,0.6,6.3,0.6h9c2.2,0,4.2-0.2,6.3-0.8
			C153.9,53.6,153.9,53.1,152.6,52.7z"/>
		<path class="st2" d="M147.8,57.6c-2.1-0.5-4.2-0.7-6.3-0.7h-1.7c-2.2,0-4.2,0.2-6.3,0.7c-1.6,0.3-3.4,0.3-5,0
			c-2.1-0.5-4.2-0.7-6.3-0.7h-20.6c-1.8,0-4.1,0.8-7.6,0.8c-3.5,0-6-0.8-8.4-0.8H52.1c-2.1,0-4.8,0.8-7.3,0.8h-3
			c-2.5,0-5.2-0.8-7.3-0.8H22.5c-2.2,0-4.2,0.2-6.3,0.7c-1.4,0.3-1.4,1,0,1.4c2.1,0.5,4.2,0.7,6.3,0.7h12c2.1,0,4.8-0.8,7.3-0.8h3
			c2.5,0,5.2,0.8,7.3,0.8h33.7c2.6,0,4.7-0.8,8.1-0.8c3.4,0,5.2,0.8,7.4,0.8h21c2.2,0,4.2-0.2,6.3-0.7c1.6-0.3,3.4-0.3,5,0
			c2.1,0.5,4.2,0.7,6.3,0.7h1.7c2.2,0,4.2-0.2,6.3-0.7C149.1,58.7,149.1,58,147.8,57.6z"/>
		<path class="st2" d="M31.5,62.8c-1.5-0.3-3-0.6-4.4-0.6h-1.3c-1.4,0-2.8,0.2-4.2,0.6s-1.4,0.8,0,1.1s2.7,0.6,4.2,0.6H27
			c1.5,0,3-0.2,4.4-0.6C32.8,63.6,32.8,63.1,31.5,62.8z"/>
		<path class="st2" d="M86.7,62.8c-2.1-0.3-4.2-0.6-6.3-0.6H61.8c-2.2,0-4.2,0.2-6.3,0.6c-1.4,0.3-1.4,0.8,0,1.1
			c2.1,0.3,4.2,0.6,6.3,0.6h18.7c2.2,0,4.2-0.2,6.3-0.6C88.1,63.6,88.1,63.1,86.7,62.8z"/>
		<path class="st2" d="M119.5,62.8c-2.1-0.3-4.2-0.6-6.3-0.6h-7.7c-2.2,0-4.2,0.2-6.3,0.6c-1.4,0.3-1.4,0.8,0,1.1
			c2.1,0.3,4.2,0.6,6.3,0.6h7.7c2.2,0,4.2-0.2,6.3-0.6C120.9,63.6,120.9,63.1,119.5,62.8z"/>
		<path class="st2" d="M81.6,67.9c-2.1-0.3-4.2-0.5-6.3-0.5h-9c-2.1,0-4.2,0.1-6.3,0.5c-1.4,0.2-1.4,0.7,0,0.9
			c2.1,0.3,4.2,0.5,6.3,0.5h9c2.1,0,4.2-0.1,6.3-0.5C83,68.6,83,68.1,81.6,67.9z"/>
		<path class="st2" d="M114.5,67.9c-1.7-0.2-3.3-0.5-5-0.5s-3.3,0.1-5,0.5c-1.4,0.2-1.4,0.7,0,0.9c1.7,0.2,3.3,0.5,5,0.5
			s3.3-0.2,5-0.5C115.9,68.6,115.9,68.1,114.5,67.9z"/>
		<path class="st2" d="M340.5,51.1c-0.1,0-1.1,0-2.1-1.5c-1-1.8-2.3-3.4-3.9-4.8c0.7-0.2,1.4-0.5,2.1-0.9c2.6-1.5,4.1-4.2,4-7.2
			c0-1.4-0.2-2.7-0.7-4c-0.3-1-1-1.9-1.8-2.7c-1.6-1.5-3.6-2.4-5.8-2.4h-10.3c-0.9,0-1.7,0.7-1.7,1.7l0,0v23.5
			c-0.1,0.9,0.6,1.8,1.5,1.9s1.8-0.6,1.9-1.5c0-0.1,0-0.2,0-0.3V31.2h8.5c0.9,0,1.8,0.2,2.6,0.7c0.7,0.3,1.3,0.9,1.6,1.6
			c0.6,1,0.8,2.3,0.8,3.4c0.1,1.7-0.7,3.4-2.2,4.2c-1.8,0.9-3.8,1.3-5.7,1.1c-0.9,0-1.6,0.7-1.7,1.5c-0.1,0.9,0.5,1.7,1.4,1.8
			c0.8,0.2,1.5,0.6,2.2,1c1.8,1.3,3.3,2.8,4.4,4.8c0.7,1.4,1.9,2.4,3.3,3c0.7,0.2,1.4,0.3,2.1,0.2c0.9-0.1,1.6-1,1.5-1.9
			C342.3,51.7,341.5,51,340.5,51.1L340.5,51.1L340.5,51.1z"/>
		<path class="st2" d="M366.1,51.3h-14.7v-8.3h12.6c0.9,0,1.7-0.7,1.7-1.7l0,0c0-0.9-0.8-1.7-1.7-1.7l0,0h-12.6v-8.3h14.4
			c0.9-0.1,1.6-0.9,1.5-1.9c-0.1-0.8-0.7-1.4-1.5-1.5h-16.1c-0.9,0-1.7,0.8-1.7,1.7l0,0V53c0,0.9,0.8,1.7,1.7,1.7l0,0h16.4
			c0.9-0.1,1.6-0.9,1.5-1.9C367.5,51.9,366.9,51.4,366.1,51.3L366.1,51.3z"/>
		<path class="st2" d="M391.4,51.3h-14.7v-8.3h12.6c0.9,0,1.7-0.7,1.7-1.7l0,0c0-0.9-0.8-1.7-1.7-1.7l0,0h-12.6v-8.3h14.4
			c0.9,0.1,1.8-0.6,1.9-1.5c0.1-0.9-0.6-1.8-1.5-1.9c-0.1,0-0.2,0-0.3,0H375c-0.9,0-1.7,0.8-1.7,1.7V53c0,0.9,0.8,1.7,1.7,1.7h16.4
			c0.9,0.1,1.8-0.6,1.9-1.5c0.1-0.9-0.6-1.8-1.5-1.9C391.6,51.3,391.5,51.3,391.4,51.3L391.4,51.3z"/>
		<path class="st2" d="M416.5,27.8h-16.1c-0.9,0-1.7,0.8-1.7,1.7l0,0v23.6c-0.1,0.9,0.6,1.8,1.5,1.9s1.8-0.6,1.9-1.5
			c0-0.1,0-0.2,0-0.3v-9.9h12.4c0.9,0,1.6-0.8,1.7-1.7c0-0.9-0.7-1.7-1.7-1.7h-12.4v-8.7h14.4c0.9,0,1.7-0.7,1.7-1.7l0,0
			C418.2,28.5,417.4,27.8,416.5,27.8L416.5,27.8z"/>
		<path class="st2" d="M225.3,31c-2.7-2.8-6.5-4.3-10.4-4.3c-2.1,0-4,0.3-5.8,1.1c-1.7,0.8-3.3,1.8-4.7,3.2c-1.4,1.4-2.5,3-3.2,4.7
			c-0.8,1.8-1.1,3.8-1.1,5.7c0,1.9,0.3,3.9,1.1,5.7c0.8,1.7,1.8,3.3,3.2,4.7c1.4,1.4,3,2.4,4.7,3.2c1.6,0.7,3.3,1,5.1,1.1h0.7h0.7
			c3.6-0.2,7.1-1.7,9.6-4.3c2.7-2.7,4.2-6.5,4.2-10.4c0-1.9-0.3-3.9-1.1-5.7C227.7,33.8,226.7,32.2,225.3,31z M224,45.1
			c-2.1,5-7.9,7.4-12.8,5.2c-1.3-0.5-2.3-1.3-3.2-2.2c-1.8-1.8-2.8-4.2-2.8-6.8c0-1.3,0.2-2.6,0.8-3.8c0.5-1.1,1.3-2.3,2.2-3.1
			c0.9-0.9,2.1-1.6,3.2-2.2c1.3-0.5,2.5-0.8,3.9-0.8c2.6,0,5,1,6.8,2.8c1.8,1.8,2.7,4.3,2.7,6.8C224.7,42.6,224.4,43.9,224,45.1z"/>
		<path class="st2" d="M255.1,27c-1.4,0-2.5,1.1-2.5,2.5v14.4c0,1.5-0.2,3-0.9,4.2c-0.5,0.8-1.1,1.5-1.9,1.9c-2.7,1.3-5.9,1.3-8.7,0
			c-0.8-0.5-1.5-1.1-1.9-2.1c-0.7-1.3-0.9-2.7-0.9-4.2V29.4c0-1.4-1.1-2.5-2.5-2.5l0,0c-1.4,0-2.4,1.1-2.5,2.5v14.4
			c0,2.3,0.5,4.6,1.5,6.6c0.9,1.6,2.2,3,3.8,3.9c2.1,1.1,4.4,1.7,6.8,1.7c6.3,0,9.2-3,10.6-5.6c1-2.1,1.6-4.3,1.5-6.6V29.4
			C257.6,28,256.6,27,255.1,27C255.2,27,255.1,27,255.1,27z"/>
		<path class="st2" d="M283.7,27.1c-1.4,0-2.4,1-2.5,2.4l0,0v16.7l-15.3-18.3c-0.5-0.6-1.1-0.9-1.9-0.9c-0.2,0-0.6,0-0.8,0.1
			c-0.9,0.3-1.6,1.3-1.6,2.3V53c0,1.4,1.1,2.5,2.5,2.5c1.4,0,2.5-1.1,2.5-2.5V36.3l15.1,18.3c0.5,0.6,1.1,0.9,1.9,0.9
			c0.2,0,0.6,0,0.8-0.1l0,0c0.9-0.3,1.6-1.3,1.6-2.3V29.5C286.1,28.2,285,27.1,283.7,27.1z"/>
		<path class="st2" d="M311.3,31.2c-2.7-2.7-6.5-4.2-10.4-4.2h-8.5c-0.7,0-1.3,0.2-1.7,0.7c-0.5,0.5-0.8,1.1-0.8,1.7v23.5
			c0,1.4,1,2.5,2.4,2.5l0,0h8.4c1.9,0,3.9-0.3,5.7-1.1c1.7-0.7,3.3-1.7,4.7-3.1c1.4-1.3,2.4-2.8,3.2-4.6c0.8-1.7,1.3-3.6,1.1-5.5
			c0-1.9-0.3-3.8-1.1-5.6C313.7,33.9,312.7,32.5,311.3,31.2z M310,44.8c-1,2.3-2.8,4.1-5.2,5c-1.1,0.5-2.5,0.7-3.8,0.8h-6V31.9h6
			c2.5,0,5,1,6.8,2.8c0.9,0.8,1.6,1.8,2.1,3c0.5,1.1,0.8,2.4,0.8,3.5C310.8,42.5,310.5,43.6,310,44.8L310,44.8z"/>
		<path class="st2" d="M186.5,38.4c-5.5-1.7-5.5-3.4-5.5-4.3c0-2.1,1.8-3.3,4.8-3.3c2.1,0,3.9,1,4.8,2.8c0.6,1.1,1.9,1.7,3.2,1.1
			c1.1-0.6,1.7-1.9,1.1-3.2l0,0c-1.7-3.4-5.2-5.6-9.1-5.6c-6.6,0-9.6,4-9.6,8c0,5.5,5,7.6,8.9,8.9c5.5,1.7,5.6,2.8,5.8,4.1
			c0.1,0.7-0.1,1.5-0.6,2.1c-1.3,1.1-2.8,1.7-4.6,1.5c-3.8,0-6.3-3.2-6.4-3.2c-0.8-1-2.3-1.3-3.3-0.5c-1,0.8-1.3,2.3-0.5,3.3
			c0.1,0.2,4,5.1,10.1,5.1c3.1,0.2,5.9-0.9,8.1-3.1c1.4-1.6,2.1-3.6,1.7-5.7C194.9,41.8,191.6,40,186.5,38.4z"/>
	</g>
</g>
</svg>
