<?xml version="1.0" encoding="utf-8"?>
<!-- Generator: Adobe Illustrator 24.1.0, SVG Export Plug-In . SVG Version: 6.00 Build 0)  -->
<svg version="1.1" id="Ebene_1" xmlns="http://www.w3.org/2000/svg" xmlns:xlink="http://www.w3.org/1999/xlink" x="0px" y="0px"
	 viewBox="0 0 180 92.2" style="enable-background:new 0 0 180 92.2;" xml:space="preserve">
<style type="text/css">
	.st0{fill:#FFFFFF;}
	.st1{fill:#EC1D26;}
</style>
<rect class="st0" width="180" height="92.2"/>
<rect x="4.4" y="4.4" class="st1" width="83.4" height="83.4"/>
<path class="st0" d="M22,70.3h13.1V39.5H22V70.3z M28.5,21.1c-4.1,0-7.5,3.3-7.5,7.5s3.3,7.5,7.5,7.5s7.5-3.3,7.5-7.5v0
	C36,24.4,32.7,21.1,28.5,21.1z M57.1,21.9v13.2h13.2V21.9H57.1z M39.5,70.3h13.2V21.9H39.5V70.3z M57.1,52.7h13.2V39.5H57.1
	L57.1,52.7z"/>
<rect x="92.2" y="4.4" class="st1" width="83.4" height="83.4"/>
<path class="st0" d="M106.7,22c4,0,7,1.7,7,6.3c0,4.4-3.1,6.2-7,6.2h-3.3V22H106.7z M105.9,32.6h0.7c2.6,0,4.8-1.1,4.8-4.3
	c0-3.4-2.1-4.3-4.8-4.3h-0.7V32.6z"/>
<path class="st0" d="M116,22h7v2.1h-4.7v3h4.3v2h-4.3v3.3h4.7v2.1H116L116,22z"/>
<path class="st0" d="M131.9,24.3c-0.8-0.3-1.6-0.5-2.4-0.5c-1.3,0-2.1,0.6-2.1,1.4s0.4,1.3,2.1,2c2.2,0.8,3.1,1.9,3.1,3.8
	c0,2.4-1.7,3.9-4.5,3.9c-1.1,0-2.1-0.2-3.1-0.5l0.2-2.2c0.9,0.5,1.8,0.7,2.8,0.7c1.3,0,2.2-0.6,2.2-1.6c0-1-0.5-1.5-2.3-2.2
	c-2.1-0.8-3-1.8-3-3.6c0-2.2,1.7-3.6,4.3-3.6c1,0,2,0.1,2.9,0.4L131.9,24.3z"/>
<path class="st0" d="M134.9,22h2.4v12.6h-2.4V22z"/>
<path class="st0" d="M149.4,24.6c-1-0.5-2.1-0.7-3.2-0.7c-2.5,0-4.2,1.7-4.2,4.3s1.5,4.4,4.1,4.4c0.5,0,0.9,0,1.4-0.2v-3.1h-2.6v-2
	h4.8V34c-1.3,0.4-2.6,0.7-4,0.7c-3.6,0-6.4-2.4-6.4-6.5c0-3.9,2.6-6.3,6.8-6.3c1.1,0,2.2,0.1,3.3,0.5L149.4,24.6z"/>
<path class="st0" d="M160.3,22h2.2v12.6h-3.1l-3.1-6.2c-0.6-1.2-1.4-3-1.7-3.9l0,0c0.1,0.8,0.1,3.1,0.1,4.2v5.9h-2.2V22h3.2l3,6.2
	c0.4,0.9,1.3,2.8,1.6,3.7h0c-0.1-0.9-0.1-3.3-0.1-4.6L160.3,22z"/>
<path class="st0" d="M114.3,52.4h-2.6l-1-2.9h-5l-1,2.9h-2.5l4.7-12.6h2.7L114.3,52.4z M109,44.7c-0.3-0.8-0.7-2.2-0.8-2.8h0
	c-0.2,0.7-0.6,2.1-0.9,2.8l-1,2.9h3.7L109,44.7z"/>
<path class="st0" d="M122.9,44c-0.1-0.6-0.4-1.7-0.4-2.4h0c-0.1,0.7-0.3,1.8-0.4,2.4l-1.8,8.4h-3l-3.3-12.6h2.6l1.7,7.5
	c0.1,0.4,0.5,2.2,0.6,3.1h0c0.1-0.8,0.5-2.7,0.5-3.1l1.6-7.5h3.2l1.6,7.5c0.1,0.4,0.4,2.2,0.5,3.1h0c0.1-0.8,0.5-2.6,0.6-3.1
	l1.7-7.5h2.4l-3.2,12.6h-3L122.9,44z"/>
<path class="st0" d="M142.6,52.4H140l-1-2.9h-5l-1,2.9h-2.5l4.7-12.6h2.7L142.6,52.4z M137.4,44.7c-0.3-0.8-0.7-2.2-0.8-2.8h0
	c-0.2,0.7-0.6,2.1-0.9,2.8l-1,2.9h3.7L137.4,44.7z"/>
<path class="st0" d="M144.2,39.9h3.4c2.9,0,4.9,0.7,4.9,3.3c0.1,1.5-1,2.8-2.5,3l0,0c0.8,0.2,1.1,0.7,1.5,1.7l1.8,4.6h-2.6l-1.3-3.6
	c-0.5-1.3-0.7-1.7-2.2-1.7h-0.7v5.2h-2.4L144.2,39.9z M146.6,45.3h0.7c1.9,0,2.7-0.5,2.7-1.8c0-1.4-1-1.7-2.7-1.7h-0.7V45.3z"/>
<path class="st0" d="M158.7,39.9c4,0,7,1.7,7,6.3c0,4.4-3.1,6.2-7,6.2h-3.3V39.9H158.7z M157.9,50.5h0.7c2.6,0,4.8-1.1,4.8-4.3
	c0-3.4-2.1-4.3-4.8-4.3h-0.7V50.5z"/>
<path class="st0" d="M103,70.4v-2.1c1.2-1.1,5.4-4.6,5.4-6.9c0-1.1-1-1.7-2-1.7c-1,0.1-2,0.4-2.9,1l-0.2-2.1
	c1.1-0.6,2.4-0.9,3.7-0.9c2.4,0,3.9,1.2,3.9,3.6c0,2.6-2.7,5.1-4.7,7.1h5.1v2L103,70.4z"/>
<path class="st0" d="M112.7,64.2c0-3.1,0.9-6.5,4.3-6.5c3.6,0,4.3,3.6,4.3,6.5c0,2.9-0.7,6.4-4.3,6.4
	C113.2,70.6,112.7,66.8,112.7,64.2z M118.9,64.2c0-1.6,0-4.6-1.9-4.6s-1.8,3-1.8,4.6c0,1.6,0,4.6,1.8,4.6S118.9,65.8,118.9,64.2z"/>
<path class="st0" d="M122.8,70.4v-2.1c1.2-1.1,5.4-4.6,5.4-6.9c0-1.1-1-1.7-2-1.7c-1,0.1-2,0.4-2.9,1l-0.2-2.1
	c1.1-0.6,2.4-0.9,3.7-0.9c2.4,0,3.9,1.2,3.9,3.6c0,2.6-2.7,5.1-4.7,7.1h5.1v2L122.8,70.4z"/>
<path class="st0" d="M132.6,64.2c0-3.1,0.9-6.5,4.3-6.5c3.6,0,4.3,3.6,4.3,6.5c0,2.9-0.7,6.4-4.3,6.4
	C133,70.6,132.6,66.8,132.6,64.2z M138.7,64.2c0-1.6,0-4.6-1.9-4.6c-1.9,0-1.8,3-1.8,4.6c0,1.6,0,4.6,1.8,4.6
	C138.7,68.8,138.7,65.8,138.7,64.2z"/>
</svg>
